<?xml version="1.0" encoding="utf-8"?>
<!-- Generator: Adobe Illustrator 18.1.1, SVG Export Plug-In . SVG Version: 6.00 Build 0)  -->
<svg version="1.1" xmlns="http://www.w3.org/2000/svg" xmlns:xlink="http://www.w3.org/1999/xlink" x="0px" y="0px"
	 viewBox="0 0 1920 352" enable-background="new 0 0 1920 352" xml:space="preserve">
<g id="SOURCE" display="none">
	<g display="inline">
		<g>
			<path d="M53.4,189.2c27.7,12.7,58.1,19.1,88.6,18.1c13.7-0.4,28.8-1.4,41.3-7.5c10.7-5.3,17.7-15.2,20.7-26.5
				c3.7-13.4,2.7-27.7,1-41.4c-0.4-3.7-3.9-6.4-7.5-4.3c-12.9,7.4-25.7,18.5-28.9,33.8c-2.7,13.1,1.5,28.3,13.9,35
				c13.8,7.5,30.3,2.5,42.1-6.3c14.7-10.9,27.1-25.5,40-38.3c-2.8-0.7-5.6-1.5-8.4-2.2c1.8,12.1,5.1,23.8,9.9,35.1
				c1.4,3.2,5.5,5.3,8.4,2.2c3.1-3.4,6.3-6.8,9.4-10.1c1.6-1.7,3.1-3.4,4.7-5.1c0.8-0.9,3.1-4.4,4.3-4.6c-2.4,0.3,0.2,2.3,1,3.4
				c1.4,2.1,2.9,4.1,4.3,6.2c2.5,3.6,5,7.2,7.5,10.8c2.1,3,6.6,3.4,8.6,0c3.9-6.7,9.1-12.1,15.8-16.1c-2.4-1-4.9-2-7.3-3
				c5.1,12.1,15.2,29.3,30.9,26.4c6.3-1.2,11.1-5.6,15.2-10.3c2.8-3.2,7.3-10.7,12.4-9.7c3.5,0.7,6.5,4.4,9.7,6
				c3.7,1.8,7.9,2.5,12,2.2c8.1-0.5,15.5-4.5,21.3-10.1c6.3-6.1,10.9-13.9,15.2-21.5c4.5-7.9,8.3-16.2,11.3-24.8
				c6.4-18.5,7.6-39-2.3-56.5c-1.8-3.3-6.8-3.2-8.6,0c-14.5,25.2-21.3,54.7-18.9,83.7c1,12.2,2.6,26.2,10,36.3
				c8.1,11,20.9,11.2,31.6,3.7c13-8.9,23.6-21.3,31.3-35c-3.1-0.8-6.2-1.7-9.3-2.5c1.2,15.2,6.5,38,25.6,38.6
				c10.7,0.3,21.4-7.5,29.7-13.5c9.7-7,18.5-15,26.2-24.2c-2.8-0.7-5.6-1.5-8.4-2.2c14.1,33.7,28.2,67.4,42.3,101.1
				c3.4,8.1,6.9,16.1,10.1,24.2c2.9,7.5,5.9,16,4.4,24.2c-1.1,6.1-5.7,12.4-11.9,14c-6.5,1.7-11.4-3.2-13.1-9.1
				c-2.2-7.9,1.2-16,4.7-23c3.2-6.4,6.8-12.5,10.8-18.4c8-12.1,17.4-23.1,27.5-33.4c20.5-20.7,44.2-37.9,68.5-53.8
				c6.9-4.5,13.9-9,21-13.4c3.4-2.1,6.8-4.2,10.2-6.3c0.8-0.5,1.9-1.4,2.7-1.7c1-0.3-0.6-1.2,0.9,0c1.5,1.3,2.6,4.4,3.5,6.1
				c8.7,16.4,13.1,34.7,13.3,53.3c2.1-1.6,4.2-3.2,6.3-4.8c-14.3-5.6-27.5-13.7-39.1-23.8c-1.2,2.8-2.4,5.7-3.5,8.5
				c25.2-0.4,51.5-1.6,75-12c18.8-8.3,48.5-32.7,32.8-55.6c-7.4-10.7-21-15.4-33-10.3c-5.9,2.5-0.8,11.1,5,8.6
				c10.3-4.4,23.8,6.2,22.1,17.2c-2,12.5-15.4,22.7-25.7,28.3c-22.9,12.4-50.7,13.2-76.2,13.6c-4.1,0.1-6.9,5.6-3.5,8.5
				c12.9,11.4,27.5,20.2,43.5,26.4c3.1,1.2,6.4-1.8,6.3-4.8c-0.2-18.6-4.4-36.8-12.3-53.6c-2.9-6.1-7.1-17.8-15.7-16.4
				c-3.7,0.6-7,3.3-10.1,5.3c-3.8,2.4-7.7,4.8-11.5,7.2c-28.9,18.2-57.6,37.5-82.4,61.2c-12,11.5-23,24.1-32.4,37.8
				c-8.9,13-21,30.5-19.2,47.1c1.6,14.7,15.3,26.2,29.9,19.3c16.4-7.7,18.1-26.9,13.3-42.4c-3.4-10.9-8.5-21.4-12.9-32
				c-4.6-11-9.2-22.1-13.8-33.1c-9.4-22.4-18.7-44.7-28.1-67.1c-1.3-3.1-5.6-5.4-8.4-2.2c-6,7.1-12.5,13.6-19.8,19.4
				c-7,5.5-15.5,11.9-24.1,14.6c-15.6,4.9-19.7-16.9-20.5-27.9c-0.4-4.7-6.7-7.1-9.3-2.5c-7.1,12.6-17.2,25.1-29.7,32.7
				c-15.5,9.4-21.1-9.7-23.1-21.5c-5.4-30.7,0.6-63,16.1-89.9c-2.9,0-5.8,0-8.6,0c15.2,26.9-0.9,62.6-17.6,85
				c-4.4,5.9-10.1,11.2-17.5,12.6c-3.7,0.7-7.4,0.3-10.6-1.6c-2.9-1.7-5.2-4.1-8.4-5.3c-11.2-4.3-18.4,5.9-25,13.1
				c-4.1,4.5-9,8.4-15.1,4.9c-6.3-3.7-10.4-11.4-13.2-17.9c-1.2-2.9-4.3-4.9-7.3-3c-8,4.9-14.6,11.6-19.3,19.7c2.9,0,5.8,0,8.6,0
				c-3.6-5.1-7.1-10.3-10.7-15.4c-2.6-3.8-5.2-9.1-10.2-9.8c-5.2-0.7-8.7,4-11.8,7.4c-4.7,5.1-9.4,10.1-14.1,15.2
				c2.8,0.7,5.6,1.5,8.4,2.2c-4.7-11.3-8-23-9.9-35.1c-0.6-3.9-5.9-4.6-8.4-2.2c-10.4,10.4-20.6,21.2-31.5,31.2
				c-9.1,8.4-21.2,16.8-34.3,13.5c-11.7-2.9-16-15.9-13.3-26.7c3.1-12.1,13.6-20.5,24-26.5c-2.5-1.4-5-2.9-7.5-4.3
				c1.6,13.3,2.9,27.6-1.3,40.6c-4.8,15.3-17.9,21.1-32.9,23.2c-34.6,4.9-70.8-0.7-102.5-15.2C52.6,177.9,47.5,186.5,53.4,189.2
				L53.4,189.2z"/>
		</g>
	</g>
	<g display="inline">
		<g>
			<path d="M615.1,95.8c7.6,8.5,11.3,20.1,9.8,31.5c-0.9,6.3,8.8,9,9.6,2.7c2.1-15.2-2.1-29.8-12.3-41.2
				C617.8,83.9,610.8,91,615.1,95.8L615.1,95.8z"/>
		</g>
	</g>
	<g display="inline">
		<g>
			<path d="M373.6,114.2c6.4,0,6.4-10,0-10C367.2,104.2,367.2,114.2,373.6,114.2L373.6,114.2z"/>
		</g>
	</g>
	<g display="inline">
		<g>
			<path d="M975.3,194.7c32.5,7.4,61-15.2,75.3-42.7c16.1-31.1,21.5-68.4,18.8-103.1c-0.4-5.2-6.3-6.5-9.3-2.5
				c-20.4,27.4-23.2,65.3-9.3,96.1c7,15.4,18.6,29.3,34.4,36c14.1,6,31.8,4.6,40.9-9.1c9-13.4,5.8-32.4-6.9-42.1
				c-1.3,3-2.6,6.1-3.9,9.1c13.8,5.1,28.1,8.4,42.7,9.8c12.5,1.2,30,3.2,40.4-5.3c9.5-7.8,12.2-22.8,12.9-34.5
				c0.8-13.8-2.3-27.4-8.4-39.7c-1.6-3.3-7-3.2-8.6,0c-14.3,27.9-18.2,62.2-7.8,92.2c4.4,12.6,12,24.9,24.7,30.4
				c13.3,5.8,28.8,2.7,40.8-4.8c15-9.4,24.4-25,33.2-39.8c-3.1-0.8-6.2-1.7-9.3-2.5c0.4,12.1,6.9,23.9,17.8,29.7
				c9.6,5.1,21,4.7,30.7,0.2c21.8-10.1,25.7-37.6,10.7-55.5c-7.3-8.8-20.2-14.8-31.6-11.1c-10.5,3.4-17.5,16.9-10.1,26.5
				c3.8,4.9,9.9,6.4,15.7,7.9c7.9,2,16,3.6,24.1,4.9c15.4,2.5,30.9,4,46.5,4.2c17.2,0.3,35.3-0.1,52.2-3.8
				c13.7-3,28.2-14.6,23.3-30.3c-1-3.1-4.5-4.6-7.3-3c-8.3,4.8-15.3,11.6-20.1,19.9c-4,6.9-9.5,18.8-2.5,25.7
				c6.6,6.4,16.6,1.7,22.6-3c8.1-6.2,13.9-14.4,17.8-23.7c-3.2,0-6.4,0-9.6,0c12,34.6,23.9,69.3,35.9,103.9c2.9,8.5,5.9,17,8.8,25.5
				c2.1,6.2,7.1,15.1,4.3,21.7c-4.2,10-19.9,12.1-29.2,12.9c1.7,1.7,3.3,3.3,5,5c1-62.9,53.1-107.4,97.8-144
				c14-11.4,28-22.9,41.1-35.2c4.7-4.4-2.4-11.5-7.1-7.1c-46.1,43.2-105.1,77.2-131,137.6c-6.7,15.5-10.6,31.9-10.9,48.7
				c0,2.5,2.3,5.2,5,5c12-1,26.4-3.6,34.7-13.2c4.5-5.2,6-11.8,4.8-18.5c-1.8-9.4-6.1-18.7-9.2-27.7c-13.5-39-27-78.1-40.4-117.1
				c-1.7-5-7.8-4.5-9.6,0c-2.4,5.8-6.1,11-10.6,15.4c-1.9,1.8-12.2,10.8-13.5,5.5c-0.6-2.3,1.8-6.8,2.8-8.8c1.3-2.7,2.8-5.3,4.6-7.7
				c3.7-4.9,8.4-8.9,13.7-12c-2.4-1-4.9-2-7.3-3c3.5,11.1-9.4,16.6-18,18.3c-11.3,2.2-23.1,2.7-34.6,3c-22.9,0.6-45.8-1.3-68.2-5.8
				c-5.2-1.1-10.5-2.2-15.7-3.6c-4.2-1.1-9.5-2.6-8.4-8c2.1-10.5,16.2-7.2,22.4-2.8c12.9,9.3,15.9,29.6,3.4,40.4
				c-6.3,5.4-15.4,8-23.4,5.8c-10.1-2.7-16.7-12.5-17-22.7c-0.1-4.9-6.7-6.9-9.3-2.5c-8.5,14.4-17.6,30.1-33,38.2
				c-14.4,7.5-31.1,5.6-40.7-8.2c-9.1-13.1-12-30.6-12.1-46.2c-0.2-17.9,4-35.6,12.2-51.6c-2.9,0-5.8,0-8.6,0
				c5.2,10.5,7.6,22.1,7.1,33.8c-0.4,9.2-2.4,24.8-12,29.3c-5,2.3-11.1,2.1-16.5,2.1c-6.2,0-12.4-0.4-18.5-1.1
				c-12.4-1.5-24.7-4.7-36.4-9.1c-5.8-2.2-7.9,6-3.9,9.1c8.5,6.5,9.2,20.6,3,28.9c-8.3,11.1-24,7.5-34.1,1.3
				c-23.7-14.5-32.9-46-30.6-72.4c1.4-15.4,7-30.1,16.2-42.4c-3.1-0.8-6.2-1.7-9.3-2.5c2.4,31.4-1.8,64.8-15.3,93.6
				c-11.7,25-36.1,49.3-66.1,42.5C971.7,183.6,969,193.3,975.3,194.7L975.3,194.7z"/>
		</g>
	</g>
</g>
<g id="Layer_2">
	<path opacity="0.9" d="M0,0v352h1920V0H0z"/>
</g>
</svg>
