<?xml version="1.0" encoding="utf-8"?>
<!-- Generator: Adobe Illustrator 18.1.1, SVG Export Plug-In . SVG Version: 6.00 Build 0)  -->
<svg version="1.1" xmlns="http://www.w3.org/2000/svg" xmlns:xlink="http://www.w3.org/1999/xlink" x="0px" y="0px"
	 viewBox="0 0 206 69.5" enable-background="new 0 0 206 69.5" xml:space="preserve">
<g id="Inactive_Tab">
</g>
<g id="Active_Tab">
</g>
<g id="Live_Text">
	<g>
		<path fill="#E0150F" d="M44.5,48.8V47c1.2-0.2,2-0.5,2.6-0.8c0.6-0.3,0.9-0.5,0.9-0.8V19.9c0-0.2-0.3-0.5-0.8-0.8
			c-0.6-0.3-1.5-0.6-2.7-0.8v-1.9H58v1.9c-1.2,0.2-2,0.5-2.6,0.8c-0.6,0.3-0.9,0.6-0.9,0.8v10.4h13.4V19.9c0-0.2-0.3-0.5-0.8-0.8
			c-0.6-0.3-1.5-0.6-2.7-0.8v-1.9h13.5v1.9c-1.2,0.2-2,0.5-2.6,0.8c-0.6,0.3-0.9,0.6-0.9,0.8v25.5c0,0.2,0.3,0.5,0.8,0.8
			s1.5,0.6,2.7,0.8v1.9H64.3V47c1.2-0.2,2-0.5,2.6-0.8c0.6-0.3,0.9-0.5,0.9-0.8v-12H54.5v12c0,0.2,0.3,0.5,0.8,0.8
			c0.6,0.3,1.5,0.6,2.7,0.8v1.9H44.5z"/>
		<path fill="#E0150F" d="M101.8,38.3c0,1-0.1,1.9-0.4,2.9c-0.3,0.9-0.6,1.8-1.1,2.6c-0.5,0.8-1.1,1.6-1.7,2.3
			c-0.7,0.7-1.4,1.3-2.2,1.8s-1.7,0.9-2.6,1.2c-0.9,0.3-1.9,0.4-2.9,0.4c-1.5,0-2.9-0.3-4.2-0.8c-1.2-0.5-2.3-1.2-3.2-2.2
			c-0.9-0.9-1.6-2-2-3.3c-0.5-1.3-0.7-2.6-0.7-4.1c0-1,0.1-1.9,0.4-2.8c0.2-0.9,0.6-1.8,1-2.6s1-1.6,1.7-2.3
			c0.7-0.7,1.4-1.3,2.2-1.8c0.8-0.5,1.7-0.9,2.7-1.2c1-0.3,2-0.4,3.1-0.4c1.5,0,2.9,0.3,4.2,0.8c1.2,0.5,2.3,1.2,3.2,2.2
			c0.9,0.9,1.6,2,2,3.3C101.6,35.4,101.8,36.8,101.8,38.3z M95.6,39.4c0-1.1-0.1-2.2-0.3-3.3c-0.2-1-0.5-2-0.9-2.7
			c-0.4-0.8-0.9-1.4-1.4-1.9c-0.6-0.5-1.2-0.7-2-0.7c-0.8,0-1.5,0.2-2,0.6c-0.5,0.4-1,0.9-1.3,1.6c-0.3,0.7-0.5,1.5-0.7,2.5
			s-0.2,2-0.2,3.1c0,1.1,0.1,2.2,0.3,3.2c0.2,1,0.5,1.8,0.9,2.6c0.4,0.7,0.9,1.3,1.4,1.7s1.2,0.6,1.8,0.6c0.8,0,1.5-0.2,2-0.5
			c0.5-0.3,1-0.8,1.3-1.4s0.5-1.4,0.7-2.3S95.6,40.6,95.6,39.4z"/>
		<path fill="#E0150F" d="M129.7,48.8V47c0.5-0.1,0.9-0.3,1.3-0.4c0.3-0.1,0.6-0.2,0.7-0.3c0.2-0.1,0.3-0.2,0.3-0.3
			c0.1-0.1,0.1-0.2,0.1-0.3v-9.8c0-0.9,0-1.6-0.1-2.1s-0.2-0.9-0.4-1.2c-0.2-0.3-0.4-0.4-0.7-0.5s-0.6-0.1-1-0.1
			c-0.5,0-1.2,0.1-1.9,0.4c-0.8,0.3-1.6,0.7-2.5,1.3v12c0,0.1,0,0.2,0.1,0.3c0.1,0.1,0.2,0.2,0.4,0.3s0.5,0.2,0.8,0.3
			c0.3,0.1,0.8,0.3,1.4,0.4v1.8h-10.9V47c0.5-0.1,0.9-0.3,1.3-0.4c0.3-0.1,0.6-0.2,0.7-0.3c0.2-0.1,0.3-0.2,0.3-0.3
			c0.1-0.1,0.1-0.2,0.1-0.3v-9.8c0-0.9,0-1.6-0.1-2.1s-0.2-0.9-0.3-1.2c-0.2-0.3-0.4-0.4-0.6-0.5s-0.6-0.1-1-0.1
			c-0.6,0-1.2,0.1-2,0.4c-0.8,0.2-1.6,0.7-2.7,1.3v12c0,0.2,0.2,0.4,0.6,0.7s1.1,0.5,2,0.7v1.8h-11.3V47c1-0.2,1.7-0.5,2.1-0.7
			c0.5-0.2,0.7-0.4,0.7-0.7V34c0-0.6,0-1,0-1.4s-0.1-0.6-0.3-0.8s-0.5-0.3-0.9-0.4c-0.4-0.1-0.9-0.2-1.6-0.3v-1.7
			c0.8-0.1,1.6-0.2,2.2-0.3s1.3-0.2,1.9-0.3c0.6-0.1,1.1-0.3,1.7-0.4c0.5-0.2,1.1-0.3,1.6-0.5l1,1l0.2,1.9c0.9-0.6,1.7-1.2,2.4-1.5
			c0.7-0.4,1.3-0.7,1.9-0.9c0.6-0.2,1.2-0.3,1.7-0.4s1.1-0.1,1.6-0.1c0.7,0,1.3,0.1,1.8,0.3s1,0.4,1.3,0.7c0.4,0.3,0.7,0.6,0.9,0.9
			c0.2,0.3,0.4,0.6,0.5,0.9l0.1,0.2c0.9-0.6,1.7-1.2,2.4-1.5c0.7-0.4,1.4-0.7,2-0.9c0.6-0.2,1.2-0.4,1.7-0.4
			c0.5-0.1,1.1-0.1,1.6-0.1c0.7,0,1.4,0.1,2,0.3c0.6,0.2,1.2,0.5,1.7,1c0.5,0.5,0.9,1.1,1.2,1.8s0.4,1.7,0.4,2.8v11.9
			c0,0.2,0.2,0.4,0.7,0.6c0.5,0.2,1.2,0.4,2.4,0.7v1.8H129.7z"/>
		<path fill="#E0150F" d="M162,36.9c-0.1,0.1-0.3,0.3-0.6,0.5c-0.3,0.2-0.6,0.4-0.9,0.5s-0.6,0.3-1,0.5c-0.3,0.2-0.6,0.3-0.8,0.4
			h-9.9c0,1,0.2,1.9,0.4,2.8c0.2,0.8,0.6,1.5,1,2.1s1,1,1.6,1.4s1.3,0.5,2.1,0.5c0.5,0,0.9,0,1.3-0.1c0.4-0.1,0.9-0.2,1.4-0.3
			c0.5-0.2,1.1-0.4,1.7-0.8c0.6-0.3,1.4-0.8,2.3-1.4c0.1,0,0.2,0.1,0.3,0.3c0.1,0.2,0.3,0.3,0.4,0.5c0.1,0.2,0.2,0.3,0.3,0.5
			s0.2,0.2,0.2,0.3c-1,1-2,1.8-2.8,2.5s-1.6,1.1-2.4,1.5c-0.8,0.4-1.5,0.6-2.3,0.7s-1.6,0.2-2.5,0.2c-1.3,0-2.5-0.3-3.6-0.8
			c-1.1-0.5-2.1-1.2-2.9-2.1s-1.5-2-2-3.3c-0.5-1.3-0.7-2.7-0.7-4.2c0-2,0.4-3.7,1.1-5.2c0.7-1.5,1.8-2.8,3.3-3.9
			c0.8-0.6,1.8-1.1,2.9-1.5s2.3-0.6,3.5-0.6c1.4,0,2.7,0.2,3.7,0.7c1.1,0.5,2,1.1,2.7,1.9c0.7,0.8,1.2,1.8,1.6,2.9
			C161.8,34.5,162,35.7,162,36.9z M152.6,30.6c-0.7,0-1.2,0.1-1.7,0.4c-0.5,0.3-0.8,0.6-1.1,1.1s-0.5,1.1-0.7,1.7
			c-0.2,0.7-0.3,1.5-0.3,2.3h6.6c0.3,0,0.6-0.1,0.7-0.2s0.2-0.3,0.2-0.6c0-0.5-0.1-1-0.2-1.5c-0.1-0.6-0.3-1.1-0.6-1.6
			c-0.3-0.5-0.7-0.9-1.1-1.2C153.9,30.8,153.3,30.6,152.6,30.6z"/>
	</g>
</g>
<g id="Outlined_Text">
</g>
<g id="Layer_5">
</g>
</svg>
