<?xml version="1.0" encoding="utf-8"?>
<!-- Generator: Adobe Illustrator 18.1.1, SVG Export Plug-In . SVG Version: 6.00 Build 0)  -->
<svg version="1.1" xmlns="http://www.w3.org/2000/svg" xmlns:xlink="http://www.w3.org/1999/xlink" x="0px" y="0px"
	 viewBox="0 0 206 69.5" enable-background="new 0 0 206 69.5" xml:space="preserve">
<g id="Inactive_Tab">
	<rect x="5" y="5" display="none" fill="#231F20" width="196" height="59.5"/>
</g>
<g id="Active_Tab">
	<rect x="5" y="5" display="none" fill="#E0150F" width="196" height="59.5"/>
</g>
<g id="Live_Text">
	<g>
		<path fill="#E0150F" d="M86,39.7c0,1.5-0.3,2.8-0.9,3.9c-0.6,1.2-1.5,2.2-2.6,3c-1.1,0.8-2.5,1.5-4.2,1.9s-3.5,0.7-5.6,0.7
			c-0.4,0-0.8,0-1.4,0c-0.6,0-1.2,0-1.8,0c-0.7,0-1.3,0-2.1-0.1s-1.4,0-2.1-0.1c-1.6-0.1-3.4-0.1-5.2-0.2h-2.1V47
			c1.2-0.2,2-0.5,2.6-0.8c0.6-0.3,0.9-0.5,0.9-0.8V18.9C61,19,60.3,19,59.7,19.1c-0.6,0.1-1.1,0.2-1.6,0.3l-0.3-2.2
			c0.8-0.2,1.7-0.4,2.7-0.6c1-0.2,2.1-0.3,3.3-0.5c1.2-0.1,2.3-0.3,3.5-0.4s2.3-0.1,3.3-0.1c2,0,3.7,0.2,5.3,0.5
			c1.6,0.3,2.9,0.8,3.9,1.4c1.1,0.6,1.9,1.3,2.5,2.2s0.9,1.8,0.9,2.9c0,1.9-0.5,3.4-1.5,4.8c-1,1.3-2.5,2.3-4.4,2.9
			c1.3,0.2,2.5,0.6,3.5,1.2c1.1,0.6,2,1.3,2.8,2.1c0.8,0.8,1.4,1.8,1.8,2.8C85.8,37.4,86,38.5,86,39.7z M69,18.4h-0.4
			c-0.2,0-0.3,0-0.5,0v11.4h0.5c1.7,0,3.1-0.2,4.2-0.5c1.1-0.3,1.9-0.8,2.5-1.3c0.6-0.6,1-1.2,1.2-1.9c0.2-0.7,0.3-1.4,0.3-2.2
			c0-0.9-0.1-1.6-0.4-2.3c-0.2-0.7-0.7-1.3-1.3-1.7c-0.6-0.5-1.4-0.8-2.4-1.1C71.7,18.5,70.4,18.4,69,18.4z M71.5,32.4
			c-0.8,0-1.4,0-2,0.1c-0.5,0.1-1,0.1-1.5,0.2v12.8c0,0.1,0,0.2,0.1,0.3c0.5,0.2,1,0.3,1.7,0.4c0.6,0.1,1.3,0.1,1.9,0.1
			c2.5,0,4.4-0.6,5.6-1.7c1.3-1.1,1.9-2.7,1.9-4.6c0-0.9-0.1-1.9-0.4-2.8c-0.2-0.9-0.7-1.8-1.3-2.5c-0.6-0.7-1.4-1.3-2.4-1.8
			C74.3,32.7,73,32.4,71.5,32.4z"/>
		<path fill="#E0150F" d="M89.7,48.8V47c0.6-0.1,1.1-0.2,1.5-0.3c0.4-0.1,0.7-0.2,0.9-0.3s0.4-0.2,0.5-0.3s0.1-0.2,0.1-0.3V21.5
			c0-0.7,0-1.2-0.1-1.5c-0.1-0.4-0.2-0.6-0.4-0.8c-0.2-0.2-0.5-0.3-0.9-0.4c-0.4-0.1-0.9-0.1-1.5-0.2v-1.7c0.8-0.1,1.5-0.2,2.2-0.3
			c0.7-0.1,1.3-0.2,1.9-0.4s1.2-0.3,1.8-0.5s1.2-0.4,1.8-0.6l1,1v29.7c0,0.1,0,0.2,0.1,0.3c0.1,0.1,0.3,0.2,0.5,0.3
			c0.2,0.1,0.5,0.2,0.9,0.3c0.4,0.1,0.9,0.2,1.5,0.3v1.8H89.7z"/>
		<path fill="#E0150F" d="M124.9,38.3c0,1-0.1,1.9-0.4,2.9c-0.3,0.9-0.6,1.8-1.1,2.6c-0.5,0.8-1.1,1.6-1.7,2.3
			c-0.7,0.7-1.4,1.3-2.2,1.8s-1.7,0.9-2.6,1.2c-0.9,0.3-1.9,0.4-2.9,0.4c-1.5,0-2.9-0.3-4.2-0.8c-1.2-0.5-2.3-1.2-3.2-2.2
			c-0.9-0.9-1.6-2-2-3.3s-0.7-2.6-0.7-4.1c0-1,0.1-1.9,0.4-2.8c0.2-0.9,0.6-1.8,1-2.6c0.5-0.8,1-1.6,1.7-2.3
			c0.7-0.7,1.4-1.3,2.2-1.8c0.8-0.5,1.7-0.9,2.7-1.2c1-0.3,2-0.4,3.1-0.4c1.5,0,2.9,0.3,4.2,0.8c1.2,0.5,2.3,1.2,3.2,2.2
			c0.9,0.9,1.6,2,2,3.3C124.7,35.4,124.9,36.8,124.9,38.3z M118.7,39.4c0-1.1-0.1-2.2-0.3-3.3c-0.2-1-0.5-2-0.9-2.7
			c-0.4-0.8-0.9-1.4-1.4-1.9c-0.6-0.5-1.2-0.7-2-0.7c-0.8,0-1.5,0.2-2,0.6c-0.5,0.4-1,0.9-1.3,1.6c-0.3,0.7-0.5,1.5-0.7,2.5
			s-0.2,2-0.2,3.1c0,1.1,0.1,2.2,0.3,3.2c0.2,1,0.5,1.8,0.9,2.6c0.4,0.7,0.9,1.3,1.4,1.7s1.2,0.6,1.8,0.6c0.8,0,1.5-0.2,2-0.5
			c0.5-0.3,1-0.8,1.3-1.4s0.5-1.4,0.7-2.3S118.7,40.6,118.7,39.4z"/>
		<path fill="#E0150F" d="M146.3,34.9c0,1.1-0.2,2.1-0.7,3.1c-0.5,0.9-1.1,1.7-2,2.4c-0.8,0.7-1.8,1.2-2.9,1.5
			c-1.1,0.4-2.3,0.6-3.5,0.6h-0.3c-0.5,0.5-0.8,0.9-0.9,1.2c-0.1,0.3-0.2,0.5-0.2,0.6c0,0.1,0,0.2,0.1,0.3c0.1,0.1,0.3,0.2,0.6,0.3
			c0.3,0.1,0.8,0.2,1.4,0.4c0.6,0.1,1.5,0.3,2.6,0.4c1.7,0.2,3.2,0.5,4.3,0.8c1.1,0.3,2.1,0.7,2.7,1.1c0.7,0.4,1.1,0.9,1.4,1.5
			c0.3,0.6,0.4,1.3,0.4,2c0,0.7-0.2,1.3-0.5,2s-0.8,1.3-1.3,2c-0.6,0.6-1.2,1.2-2,1.8c-0.8,0.6-1.6,1-2.5,1.4s-1.8,0.7-2.8,1
			c-1,0.2-1.9,0.4-2.9,0.4c-0.8,0-1.6,0-2.5-0.1c-0.8-0.1-1.7-0.2-2.5-0.4c-0.8-0.2-1.6-0.5-2.3-0.8c-0.7-0.3-1.4-0.7-1.9-1.1
			s-1-0.9-1.3-1.5c-0.3-0.6-0.5-1.2-0.5-1.9c0-0.3,0.1-0.7,0.2-1.1c0.2-0.4,0.4-0.8,0.8-1.2s0.9-0.9,1.6-1.3s1.6-1,2.6-1.6
			c-0.8-0.3-1.4-0.7-1.8-1c-0.4-0.3-0.6-0.7-0.6-1s0.3-0.9,1-1.7s1.7-1.7,3.2-2.7c-0.8-0.2-1.6-0.5-2.3-0.9
			c-0.7-0.4-1.3-0.8-1.8-1.4c-0.5-0.5-0.9-1.1-1.1-1.8c-0.3-0.7-0.4-1.4-0.4-2.1c0-1.1,0.3-2.1,0.8-3c0.5-1,1.3-1.8,2.2-2.5
			c0.9-0.7,2-1.3,3.1-1.7c1.2-0.4,2.5-0.6,3.8-0.6c1.1,0,2,0.1,3,0.4c0.9,0.3,1.7,0.7,2.5,1.2c0.6-0.1,1.2-0.2,1.7-0.3
			c0.6-0.1,1.1-0.3,1.6-0.4c0.5-0.2,1-0.3,1.4-0.4s0.8-0.3,1.1-0.4l0.7,0.9c0,0.1-0.1,0.3-0.2,0.6c-0.1,0.2-0.2,0.5-0.3,0.7
			c-0.1,0.2-0.2,0.5-0.4,0.7c-0.1,0.2-0.3,0.4-0.4,0.6c-0.5,0.1-1,0.1-1.5,0.2c-0.5,0.1-1,0.1-1.6,0.1
			C146,32.7,146.3,33.8,146.3,34.9z M138.6,50c-1.4-0.2-2.7-0.4-3.9-0.7c-0.6,0.4-1,0.8-1.3,1.1c-0.3,0.3-0.5,0.6-0.7,0.9
			c-0.2,0.3-0.3,0.5-0.3,0.8s-0.1,0.5-0.1,0.7c0,0.5,0.2,0.9,0.5,1.3c0.3,0.4,0.8,0.8,1.4,1.1c0.6,0.3,1.3,0.6,2.2,0.7
			s1.7,0.3,2.7,0.3c0.8,0,1.5-0.1,2.1-0.3s1-0.5,1.4-0.8c0.4-0.3,0.6-0.7,0.8-1.1s0.3-0.8,0.3-1.3c0-0.2-0.1-0.5-0.2-0.7
			c-0.1-0.3-0.4-0.5-0.7-0.7c-0.4-0.2-0.9-0.5-1.5-0.7C140.6,50.3,139.7,50.2,138.6,50z M140.6,35.8c0-0.7-0.1-1.4-0.3-2
			c-0.2-0.6-0.4-1.2-0.8-1.7c-0.3-0.5-0.8-0.8-1.3-1.1c-0.5-0.3-1.1-0.4-1.7-0.4c-0.4,0-0.7,0.1-1.1,0.2c-0.3,0.2-0.7,0.4-0.9,0.7
			c-0.3,0.3-0.5,0.7-0.7,1.2c-0.2,0.5-0.3,1.1-0.3,1.7c0,0.7,0.1,1.4,0.2,2s0.4,1.2,0.7,1.6c0.3,0.5,0.7,0.8,1.3,1.1
			c0.5,0.3,1.1,0.4,1.8,0.4c0.4,0,0.8-0.1,1.2-0.2c0.4-0.2,0.7-0.4,0.9-0.7c0.3-0.3,0.5-0.7,0.6-1.2C140.5,37,140.6,36.4,140.6,35.8
			z"/>
	</g>
	<rect x="51.9" y="-69.3" fill="none" width="78.1" height="44"/>
	<text transform="matrix(1 0 0 1 51.915 -66.0488)" display="none"><tspan x="0" y="0" display="inline" font-family="'Futura-Medium'" font-size="4">offset sides by 10px from outlined text;</tspan><tspan x="0" y="4.8" display="inline" font-family="'Futura-Medium'" font-size="4">offset artboard by 5px from button sides</tspan></text>
</g>
<g id="Outlined_Text">
</g>
<g id="Layer_5">
</g>
</svg>
