<?xml version="1.0" encoding="utf-8"?>
<!-- Generator: Adobe Illustrator 18.1.1, SVG Export Plug-In . SVG Version: 6.00 Build 0)  -->
<svg version="1.1" xmlns="http://www.w3.org/2000/svg" xmlns:xlink="http://www.w3.org/1999/xlink" x="0px" y="0px"
	 viewBox="0 0 206 69.5" enable-background="new 0 0 206 69.5" xml:space="preserve">
<g id="Inactive_Tab">
</g>
<g id="Active_Tab">
</g>
<g id="Live_Text">
	<g>
		<path fill="#E0150F" d="M52.5,43.4c-1.1,1.1-2.2,2.1-3.2,2.9c-1.1,0.8-2.1,1.4-3.2,1.9c-1,0.5-2.1,0.9-3.1,1.1s-2,0.3-3,0.3
			c-1.7,0-3.4-0.4-5.1-1.1s-3.1-1.8-4.4-3.1c-1.3-1.4-2.3-3-3.1-5c-0.8-2-1.2-4.2-1.2-6.7c0-2.7,0.4-5.2,1.3-7.5
			c0.8-2.2,2-4.1,3.5-5.7c1.5-1.6,3.2-2.8,5.2-3.7s4.1-1.3,6.4-1.3c0.9,0,1.8,0.1,2.8,0.2c0.9,0.1,1.8,0.3,2.6,0.6
			c0.8,0.2,1.6,0.5,2.2,0.8c0.7,0.3,1.2,0.6,1.7,1c0.1,0.1,0.1,0.2,0,0.5c-0.1,0.3-0.2,0.6-0.3,0.9c-0.2,0.4-0.3,0.7-0.6,1.2
			c-0.2,0.4-0.4,0.8-0.7,1.2s-0.4,0.7-0.6,1c-0.2,0.3-0.4,0.5-0.5,0.7l-1.7-0.4c-0.9-1.5-1.9-2.6-3-3.3c-1.1-0.7-2.4-1-3.7-1
			c-0.6,0-1.2,0.1-1.8,0.3s-1.2,0.5-1.8,0.9c-0.6,0.4-1.2,1-1.7,1.7c-0.5,0.7-1,1.5-1.4,2.6c-0.4,1-0.7,2.2-1,3.6
			c-0.2,1.4-0.3,2.9-0.3,4.7c0,2.2,0.3,4.1,0.9,5.7c0.6,1.6,1.3,2.9,2.2,3.9s1.9,1.8,3.1,2.3c1.1,0.5,2.3,0.7,3.4,0.7
			c0.5,0,1-0.1,1.6-0.2c0.6-0.1,1.3-0.3,2.1-0.6c0.7-0.3,1.5-0.7,2.4-1.1c0.8-0.5,1.7-1.1,2.6-1.8c0.1,0.1,0.2,0.2,0.3,0.4
			c0.1,0.2,0.3,0.4,0.4,0.5c0.1,0.2,0.2,0.4,0.4,0.5C52.4,43.3,52.5,43.4,52.5,43.4z"/>
		<path fill="#E0150F" d="M76.8,38.3c0,1-0.1,1.9-0.4,2.9c-0.3,0.9-0.6,1.8-1.1,2.6c-0.5,0.8-1.1,1.6-1.7,2.3
			c-0.7,0.7-1.4,1.3-2.2,1.8c-0.8,0.5-1.7,0.9-2.6,1.2c-0.9,0.3-1.9,0.4-2.9,0.4c-1.5,0-2.9-0.3-4.2-0.8c-1.2-0.5-2.3-1.2-3.2-2.2
			c-0.9-0.9-1.6-2-2-3.3c-0.5-1.3-0.7-2.6-0.7-4.1c0-1,0.1-1.9,0.4-2.8c0.2-0.9,0.6-1.8,1-2.6s1-1.6,1.7-2.3
			c0.7-0.7,1.4-1.3,2.2-1.8c0.8-0.5,1.7-0.9,2.7-1.2c1-0.3,2-0.4,3.1-0.4c1.5,0,2.9,0.3,4.2,0.8c1.2,0.5,2.3,1.2,3.2,2.2
			c0.9,0.9,1.6,2,2,3.3C76.6,35.4,76.8,36.8,76.8,38.3z M70.6,39.4c0-1.1-0.1-2.2-0.3-3.3c-0.2-1-0.5-2-0.9-2.7s-0.9-1.4-1.4-1.9
			c-0.6-0.5-1.2-0.7-2-0.7c-0.8,0-1.5,0.2-2,0.6c-0.5,0.4-1,0.9-1.3,1.6c-0.3,0.7-0.5,1.5-0.7,2.5s-0.2,2-0.2,3.1
			c0,1.1,0.1,2.2,0.3,3.2c0.2,1,0.5,1.8,0.9,2.6c0.4,0.7,0.9,1.3,1.4,1.7c0.6,0.4,1.2,0.6,1.8,0.6c0.8,0,1.5-0.2,2-0.5
			s1-0.8,1.3-1.4c0.3-0.6,0.5-1.4,0.7-2.3S70.6,40.6,70.6,39.4z"/>
		<path fill="#E0150F" d="M92.5,48.8V47c1-0.3,1.8-0.5,2.2-0.7s0.6-0.4,0.6-0.6v-9.4c0-0.8,0-1.4-0.1-1.9c-0.1-0.5-0.2-0.9-0.4-1.3
			c-0.2-0.3-0.4-0.5-0.7-0.7s-0.6-0.2-1-0.2c-0.3,0-0.6,0-1,0.1s-0.7,0.1-1.1,0.3c-0.4,0.1-0.9,0.3-1.4,0.6c-0.5,0.3-1.2,0.6-1.9,1
			v11.4c0,0.2,0.2,0.4,0.7,0.7s1.2,0.5,2.1,0.7v1.8H79.1V47c1-0.2,1.7-0.5,2.1-0.7c0.5-0.2,0.7-0.4,0.7-0.7V34c0-0.6,0-1,0-1.4
			c0-0.3-0.1-0.6-0.3-0.8c-0.2-0.2-0.4-0.3-0.8-0.4c-0.4-0.1-0.9-0.2-1.7-0.3v-1.7c0.8-0.1,1.5-0.2,2.1-0.3c0.7-0.1,1.3-0.2,1.9-0.3
			c0.6-0.1,1.2-0.3,1.7-0.4c0.6-0.2,1.1-0.3,1.7-0.5l1,1l0.2,2.4c0.9-0.6,1.8-1.2,2.6-1.6c0.8-0.4,1.6-0.8,2.3-1
			c0.7-0.3,1.4-0.4,2-0.6c0.6-0.1,1.2-0.2,1.8-0.2c0.6,0,1.2,0.1,1.8,0.3c0.6,0.2,1.1,0.5,1.5,1c0.4,0.5,0.8,1.1,1.1,1.8
			c0.3,0.7,0.4,1.7,0.4,2.8v11.9c0,0.1,0,0.2,0.1,0.3c0.1,0.1,0.2,0.2,0.4,0.3c0.2,0.1,0.5,0.2,0.9,0.3c0.4,0.1,0.8,0.3,1.4,0.4v1.8
			H92.5z"/>
		<path fill="#E0150F" d="M121,45.2c-2.1,1.5-3.8,2.6-5.2,3.3c-1.4,0.7-2.4,1-3.2,1c-0.7,0-1.3-0.1-1.9-0.4
			c-0.6-0.3-1.1-0.6-1.5-1.2s-0.8-1.2-1-1.9c-0.3-0.8-0.4-1.7-0.4-2.7V31.5h-2.6l-0.7-0.8l1.7-2.1h1.6v-4.3l5-3.6l0.9,0.8v7.1h6.5
			l0.8,0.9c-0.1,0.3-0.3,0.5-0.5,0.8c-0.2,0.3-0.4,0.6-0.6,0.8c-0.2,0.3-0.4,0.5-0.6,0.7c-0.2,0.2-0.4,0.4-0.5,0.5
			c-0.2-0.1-0.4-0.2-0.7-0.3c-0.3-0.1-0.6-0.2-0.9-0.3c-0.3-0.1-0.7-0.1-1-0.2s-0.7-0.1-1-0.1h-1.6v9.8c0,0.7,0,1.3,0.1,1.8
			c0.1,0.5,0.2,0.9,0.4,1.2s0.3,0.5,0.5,0.7c0.2,0.1,0.4,0.2,0.6,0.2c0.3,0,0.5,0,0.8-0.1c0.3-0.1,0.6-0.1,0.9-0.3s0.8-0.3,1.2-0.5
			c0.5-0.2,1-0.5,1.6-0.9L121,45.2z"/>
		<path fill="#E0150F" d="M144.2,46.2c-0.6,0.4-1.3,0.8-2,1.2c-0.7,0.4-1.4,0.8-2,1.1c-0.7,0.3-1.3,0.6-1.8,0.7
			c-0.5,0.2-1,0.3-1.2,0.3c-0.6,0-1-0.3-1.4-0.9c-0.4-0.6-0.6-1.4-0.7-2.5c-0.7,0.7-1.3,1.2-2,1.6c-0.7,0.4-1.3,0.8-1.9,1
			c-0.6,0.3-1.2,0.4-1.8,0.5c-0.6,0.1-1.1,0.2-1.5,0.2c-0.6,0-1.3-0.1-1.9-0.3c-0.6-0.2-1.1-0.5-1.6-1c-0.5-0.4-0.9-1-1.2-1.6
			c-0.3-0.6-0.4-1.4-0.4-2.2c0-0.9,0.2-1.8,0.5-2.4s0.8-1.3,1.3-1.8c0.3-0.3,0.8-0.7,1.2-1c0.5-0.3,1.1-0.6,1.8-0.9s1.7-0.6,2.9-0.9
			c1.2-0.3,2.7-0.6,4.4-0.9V34c0-0.4,0-0.8-0.1-1.2c-0.1-0.4-0.2-0.7-0.4-0.9c-0.2-0.3-0.5-0.5-0.8-0.6c-0.3-0.2-0.7-0.2-1.2-0.2
			c-0.3,0-0.6,0.1-0.9,0.2c-0.3,0.1-0.6,0.3-0.8,0.5c-0.2,0.2-0.4,0.5-0.6,0.9c-0.1,0.3-0.2,0.7-0.1,1.2c0,0.1-0.1,0.2-0.4,0.3
			c-0.3,0.1-0.6,0.3-1.1,0.4c-0.4,0.2-0.9,0.3-1.4,0.4c-0.5,0.1-1,0.3-1.5,0.4c-0.5,0.1-0.9,0.2-1.3,0.3c-0.4,0.1-0.6,0.1-0.7,0
			l-0.5-1.3c0.4-0.9,0.9-1.8,1.7-2.5c0.8-0.8,1.7-1.5,2.7-2s2.2-1,3.4-1.4c1.2-0.3,2.5-0.5,3.8-0.5c1.1,0,2,0.1,2.7,0.4
			c0.8,0.3,1.4,0.7,1.9,1.2c0.5,0.5,0.9,1.1,1.1,1.7c0.2,0.7,0.3,1.4,0.3,2.1v9.9c0,0.6,0.1,1,0.2,1.3c0.2,0.3,0.4,0.4,0.6,0.4
			c0.1,0,0.2,0,0.3,0s0.2,0,0.4-0.1c0.1,0,0.3-0.1,0.5-0.2c0.2-0.1,0.4-0.2,0.7-0.3L144.2,46.2z M130.8,45.4c0.2,0,0.5,0,0.7-0.1
			c0.3,0,0.6-0.1,0.9-0.3c0.3-0.2,0.7-0.4,1.1-0.6c0.4-0.3,0.9-0.6,1.4-1.1v-4.6c-0.8,0.1-1.4,0.3-2,0.4c-0.5,0.1-1,0.2-1.3,0.4
			c-0.4,0.1-0.7,0.3-0.9,0.4c-0.2,0.1-0.4,0.3-0.6,0.5c-0.4,0.4-0.7,0.8-0.9,1.2s-0.3,0.9-0.3,1.5c0,0.5,0.1,0.9,0.2,1.2
			c0.1,0.3,0.3,0.5,0.5,0.7c0.2,0.2,0.4,0.3,0.6,0.4C130.4,45.3,130.6,45.4,130.8,45.4z"/>
		<path fill="#E0150F" d="M164.1,44.7c-0.9,1.1-1.8,1.9-2.7,2.5c-0.8,0.6-1.6,1.1-2.4,1.5s-1.5,0.6-2.2,0.7
			c-0.7,0.1-1.4,0.2-2.1,0.2c-1.2,0-2.4-0.2-3.5-0.7c-1.1-0.5-2.1-1.2-3-2c-0.8-0.9-1.5-2-2-3.2c-0.5-1.3-0.8-2.7-0.8-4.3
			c0-1.6,0.3-3,0.9-4.4c0.6-1.4,1.4-2.6,2.5-3.6c1.1-1,2.3-1.8,3.8-2.4c1.5-0.6,3.1-0.9,4.9-0.9c0.5,0,1,0,1.7,0.1
			c0.6,0.1,1.3,0.2,1.9,0.3c0.6,0.2,1.2,0.3,1.7,0.5c0.5,0.2,0.9,0.4,1.2,0.7c0,0.1,0,0.3-0.1,0.7c-0.1,0.3-0.1,0.7-0.3,1.1
			s-0.2,0.9-0.4,1.4c-0.1,0.5-0.3,0.9-0.4,1.4s-0.3,0.8-0.4,1.2c-0.1,0.3-0.3,0.6-0.3,0.7l-1.7-0.2c-0.3-0.9-0.6-1.6-0.8-2.3
			c-0.3-0.6-0.6-1.2-1-1.6c-0.3-0.4-0.7-0.7-1.2-0.9c-0.4-0.2-0.9-0.3-1.4-0.3c-0.6,0-1.2,0.1-1.7,0.4c-0.6,0.3-1,0.7-1.5,1.3
			s-0.8,1.4-1,2.4s-0.4,2.2-0.4,3.6c0,1.1,0.1,2.1,0.4,3c0.3,0.9,0.6,1.6,1.1,2.2c0.5,0.6,1.1,1.1,1.7,1.4c0.7,0.3,1.4,0.5,2.1,0.5
			c0.4,0,0.8,0,1.2-0.1c0.4-0.1,0.8-0.2,1.3-0.3c0.5-0.2,1-0.4,1.5-0.7s1.2-0.7,2-1.3L164.1,44.7z"/>
		<path fill="#E0150F" d="M181.4,45.2c-2.1,1.5-3.8,2.6-5.2,3.3c-1.4,0.7-2.4,1-3.2,1c-0.7,0-1.3-0.1-1.9-0.4
			c-0.6-0.3-1.1-0.6-1.5-1.2s-0.8-1.2-1-1.9c-0.3-0.8-0.4-1.7-0.4-2.7V31.5h-2.6l-0.7-0.8l1.7-2.1h1.6v-4.3l5-3.6l0.9,0.8v7.1h6.5
			l0.8,0.9c-0.1,0.3-0.3,0.5-0.5,0.8c-0.2,0.3-0.4,0.6-0.6,0.8c-0.2,0.3-0.4,0.5-0.6,0.7c-0.2,0.2-0.4,0.4-0.5,0.5
			c-0.2-0.1-0.4-0.2-0.7-0.3c-0.3-0.1-0.6-0.2-0.9-0.3c-0.3-0.1-0.7-0.1-1-0.2s-0.7-0.1-1-0.1H174v9.8c0,0.7,0,1.3,0.1,1.8
			c0.1,0.5,0.2,0.9,0.4,1.2s0.3,0.5,0.5,0.7c0.2,0.1,0.4,0.2,0.6,0.2c0.3,0,0.5,0,0.8-0.1c0.3-0.1,0.6-0.1,0.9-0.3s0.8-0.3,1.2-0.5
			c0.5-0.2,1-0.5,1.6-0.9L181.4,45.2z"/>
	</g>
</g>
<g id="Outlined_Text">
</g>
<g id="Layer_5">
</g>
</svg>
