<?xml version="1.0" encoding="utf-8"?>
<!-- Generator: Adobe Illustrator 18.1.1, SVG Export Plug-In . SVG Version: 6.00 Build 0)  -->
<svg version="1.1" xmlns="http://www.w3.org/2000/svg" xmlns:xlink="http://www.w3.org/1999/xlink" x="0px" y="0px"
	 viewBox="0 0 206 69.5" enable-background="new 0 0 206 69.5" xml:space="preserve">
<g id="Inactive_Tab">
	<rect x="5" y="5" display="none" fill="#231F20" width="196" height="59.5"/>
</g>
<g id="Active_Tab">
	<rect x="5" y="5" display="none" fill="#E0150F" width="196" height="59.5"/>
</g>
<g id="Live_Text">
	<g>
		<path d="M30.3,48.8V47c1.2-0.2,2-0.5,2.6-0.8c0.6-0.3,0.9-0.5,0.9-0.8V19.1c-0.7,0.1-1.3,0.2-1.9,0.3c-0.6,0.1-1.1,0.2-1.7,0.3
			L30,17.2c0.9-0.2,2-0.4,3.1-0.6c1.1-0.2,2.3-0.4,3.5-0.5c1.2-0.1,2.5-0.2,3.7-0.3c1.2-0.1,2.4-0.1,3.6-0.1c2,0,3.8,0.2,5.4,0.6
			c1.6,0.4,3,1,4.2,1.7c1.2,0.8,2.1,1.7,2.7,2.9c0.6,1.1,1,2.4,1,3.9c0,1.2-0.2,2.3-0.5,3.3c-0.3,1-0.8,1.9-1.3,2.7
			c-0.6,0.8-1.2,1.5-1.9,2.1c-0.7,0.6-1.5,1.1-2.3,1.5s-1.6,0.7-2.5,0.9c-0.8,0.2-1.6,0.3-2.4,0.3c-0.8,0-1.6-0.1-2.3-0.2
			c-0.8-0.1-1.4-0.3-2-0.6L41.1,32c0.7,0.3,1.3,0.5,1.9,0.6c0.5,0.1,1.1,0.1,1.7,0.1c0.7,0,1.5-0.1,2.2-0.4c0.7-0.3,1.4-0.7,1.9-1.2
			c0.6-0.6,1-1.3,1.3-2.2c0.3-0.9,0.5-1.9,0.5-3.1c0-1.2-0.2-2.3-0.6-3.2c-0.4-0.9-1-1.7-1.7-2.3c-0.7-0.6-1.6-1.1-2.6-1.4
			c-1-0.3-2.1-0.5-3.4-0.5c-0.3,0-0.7,0-1,0c-0.4,0-0.7,0-1.1,0v26.9c0,0.1,0.1,0.2,0.2,0.3c0.1,0.1,0.3,0.2,0.6,0.4
			c0.3,0.1,0.8,0.3,1.3,0.4c0.6,0.1,1.3,0.3,2.2,0.4v1.9H30.3z"/>
		<path d="M78.9,28.9c0.1,0.1,0.1,0.3,0.1,0.6c0,0.3-0.1,0.8-0.1,1.3c-0.1,0.5-0.2,1.1-0.3,1.7s-0.3,1.2-0.4,1.8
			c-0.1,0.6-0.3,1.1-0.4,1.6c-0.2,0.5-0.3,0.9-0.4,1.1h-1.8c0-0.6-0.1-1.2-0.2-1.7c-0.1-0.6-0.3-1.1-0.5-1.5
			c-0.2-0.4-0.4-0.8-0.7-1.1c-0.3-0.3-0.6-0.4-1-0.4c-0.3,0-0.5,0-0.9,0.1s-0.7,0.2-1,0.4c-0.4,0.2-0.7,0.6-1.2,1.1
			c-0.4,0.5-0.8,1.1-1.3,2v9.9c0,0.2,0.3,0.4,0.9,0.7s1.6,0.5,3,0.7v1.8H60V47c1.9-0.4,2.8-0.9,2.8-1.3V34.5c0-0.5,0-0.9,0-1.2
			c0-0.3-0.1-0.6-0.1-0.8c0-0.2-0.1-0.4-0.2-0.5c-0.1-0.1-0.1-0.2-0.2-0.3c-0.1-0.1-0.2-0.2-0.3-0.3s-0.2-0.1-0.4-0.2
			c-0.2,0-0.4-0.1-0.6-0.1c-0.3,0-0.6,0-1-0.1v-1.7c0.9-0.1,1.7-0.2,2.3-0.3c0.6-0.1,1.2-0.2,1.7-0.3c0.5-0.1,1-0.2,1.6-0.4
			c0.5-0.1,1.1-0.3,1.8-0.5l1,1l0.3,2.6c0.4-0.5,0.8-0.9,1.3-1.4c0.5-0.4,1-0.8,1.6-1.1c0.6-0.3,1.2-0.6,1.8-0.8
			c0.6-0.2,1.2-0.3,1.9-0.3c0.6,0,1.2,0.1,1.8,0.3S78.3,28.6,78.9,28.9z"/>
		<path d="M102,38.3c0,1-0.1,1.9-0.4,2.9c-0.3,0.9-0.6,1.8-1.1,2.6c-0.5,0.8-1.1,1.6-1.7,2.3c-0.7,0.7-1.4,1.3-2.2,1.8
			s-1.7,0.9-2.6,1.2c-0.9,0.3-1.9,0.4-2.9,0.4c-1.5,0-2.9-0.3-4.2-0.8c-1.2-0.5-2.3-1.2-3.2-2.2c-0.9-0.9-1.6-2-2-3.3
			c-0.5-1.3-0.7-2.6-0.7-4.1c0-1,0.1-1.9,0.4-2.8c0.2-0.9,0.6-1.8,1-2.6s1-1.6,1.7-2.3c0.7-0.7,1.4-1.3,2.2-1.8
			c0.8-0.5,1.7-0.9,2.7-1.2c1-0.3,2-0.4,3.1-0.4c1.5,0,2.9,0.3,4.2,0.8c1.2,0.5,2.3,1.2,3.2,2.2c0.9,0.9,1.6,2,2,3.3
			C101.7,35.4,102,36.8,102,38.3z M95.8,39.4c0-1.1-0.1-2.2-0.3-3.3c-0.2-1-0.5-2-0.9-2.7c-0.4-0.8-0.9-1.4-1.4-1.9
			c-0.6-0.5-1.2-0.7-2-0.7c-0.8,0-1.5,0.2-2,0.6c-0.5,0.4-1,0.9-1.3,1.6c-0.3,0.7-0.5,1.5-0.7,2.5s-0.2,2-0.2,3.1
			c0,1.1,0.1,2.2,0.3,3.2c0.2,1,0.5,1.8,0.9,2.6c0.4,0.7,0.9,1.3,1.4,1.7s1.2,0.6,1.8,0.6c0.8,0,1.5-0.2,2-0.5
			c0.5-0.3,1-0.8,1.3-1.4s0.5-1.4,0.7-2.3S95.8,40.6,95.8,39.4z"/>
		<path d="M113.2,46.5c0,1.7-0.2,3.1-0.5,4.2c-0.3,1.1-0.7,2.1-1.3,2.9s-1.1,1.5-1.7,2c-0.6,0.5-1.2,1-1.8,1.5
			c-0.4,0.3-0.8,0.6-1.3,0.9c-0.5,0.3-1,0.5-1.5,0.8s-1,0.4-1.6,0.5s-1,0.2-1.4,0.2c-0.6,0-1.2-0.1-1.9-0.2s-1.3-0.4-1.8-0.6
			c-0.5-0.2-1-0.5-1.3-0.7c-0.3-0.2-0.5-0.5-0.5-0.6c0-0.2,0.1-0.4,0.2-0.6c0.2-0.2,0.4-0.5,0.6-0.8c0.3-0.3,0.5-0.6,0.9-0.8
			s0.6-0.5,0.9-0.8c0.3-0.2,0.6-0.5,0.8-0.6c0.3-0.2,0.5-0.3,0.6-0.4c0.2,0.3,0.5,0.6,0.9,0.8c0.4,0.3,0.7,0.5,1.1,0.7
			s0.8,0.3,1.1,0.4c0.4,0.1,0.7,0.2,1,0.2c0.4,0,0.7-0.1,1-0.3c0.3-0.2,0.6-0.6,0.8-1.1c0.2-0.6,0.4-1.3,0.6-2.3s0.2-2.3,0.2-3.9
			v-13c0-0.7,0-1.3,0-1.8c0-0.5-0.1-0.8-0.3-1.1s-0.4-0.4-0.8-0.6c-0.4-0.1-1-0.2-1.7-0.3v-1.7c0.8-0.1,1.5-0.2,2.1-0.3
			c0.6-0.1,1.2-0.2,1.7-0.3c0.5-0.1,1-0.2,1.5-0.4c0.5-0.1,1.1-0.3,1.7-0.5h1.7V46.5z M114.2,21.4c0,0.5-0.1,1-0.3,1.4
			c-0.2,0.4-0.5,0.8-0.9,1.1s-0.8,0.5-1.3,0.7c-0.5,0.2-1,0.2-1.6,0.2c-0.4,0-0.9,0-1.3-0.1c-0.4-0.1-0.8-0.2-1.1-0.5
			c-0.3-0.2-0.6-0.5-0.8-0.8c-0.2-0.3-0.3-0.7-0.3-1.1c0-0.5,0.1-1,0.3-1.4c0.2-0.4,0.5-0.8,0.9-1.1c0.4-0.3,0.8-0.5,1.3-0.7
			c0.5-0.2,1-0.2,1.6-0.2c0.4,0,0.8,0,1.2,0.1c0.4,0.1,0.8,0.2,1.1,0.4c0.3,0.2,0.6,0.5,0.8,0.8C114.1,20.5,114.2,20.9,114.2,21.4z"
			/>
		<path d="M137.2,36.9c-0.1,0.1-0.3,0.3-0.6,0.5c-0.3,0.2-0.6,0.4-0.9,0.5s-0.6,0.3-1,0.5c-0.3,0.2-0.6,0.3-0.8,0.4H124
			c0,1,0.2,1.9,0.4,2.8c0.2,0.8,0.6,1.5,1,2.1s1,1,1.6,1.4s1.3,0.5,2.1,0.5c0.5,0,0.9,0,1.3-0.1c0.4-0.1,0.9-0.2,1.4-0.3
			c0.5-0.2,1.1-0.4,1.7-0.8c0.6-0.3,1.4-0.8,2.3-1.4c0.1,0,0.2,0.1,0.3,0.3c0.1,0.2,0.3,0.3,0.4,0.5c0.1,0.2,0.2,0.3,0.3,0.5
			s0.2,0.2,0.2,0.3c-1,1-2,1.8-2.8,2.5s-1.6,1.1-2.4,1.5c-0.8,0.4-1.5,0.6-2.3,0.7s-1.6,0.2-2.5,0.2c-1.3,0-2.5-0.3-3.6-0.8
			c-1.1-0.5-2.1-1.2-2.9-2.1s-1.5-2-2-3.3c-0.5-1.3-0.7-2.7-0.7-4.2c0-2,0.4-3.7,1.1-5.2c0.7-1.5,1.8-2.8,3.3-3.9
			c0.8-0.6,1.8-1.1,2.9-1.5s2.3-0.6,3.5-0.6c1.4,0,2.7,0.2,3.7,0.7c1.1,0.5,2,1.1,2.7,1.9c0.7,0.8,1.2,1.8,1.6,2.9
			C137,34.5,137.2,35.7,137.2,36.9z M127.8,30.6c-0.7,0-1.2,0.1-1.7,0.4c-0.5,0.3-0.8,0.6-1.1,1.1s-0.5,1.1-0.7,1.7
			c-0.2,0.7-0.3,1.5-0.3,2.3h6.6c0.3,0,0.6-0.1,0.7-0.2s0.2-0.3,0.2-0.6c0-0.5-0.1-1-0.2-1.5c-0.1-0.6-0.3-1.1-0.6-1.6
			c-0.3-0.5-0.7-0.9-1.1-1.2C129.1,30.8,128.5,30.6,127.8,30.6z"/>
		<path d="M158.4,44.7c-0.9,1.1-1.8,1.9-2.7,2.5c-0.8,0.6-1.6,1.1-2.4,1.5s-1.5,0.6-2.2,0.7c-0.7,0.1-1.4,0.2-2.1,0.2
			c-1.2,0-2.4-0.2-3.5-0.7c-1.1-0.5-2.1-1.2-3-2c-0.8-0.9-1.5-2-2-3.2c-0.5-1.3-0.8-2.7-0.8-4.3c0-1.6,0.3-3,0.9-4.4
			c0.6-1.4,1.4-2.6,2.5-3.6c1.1-1,2.3-1.8,3.8-2.4c1.5-0.6,3.1-0.9,4.9-0.9c0.5,0,1,0,1.7,0.1c0.6,0.1,1.3,0.2,1.9,0.3
			c0.6,0.2,1.2,0.3,1.7,0.5c0.5,0.2,0.9,0.4,1.2,0.7c0,0.1,0,0.3-0.1,0.7c-0.1,0.3-0.1,0.7-0.3,1.1s-0.2,0.9-0.4,1.4
			c-0.1,0.5-0.3,0.9-0.4,1.4s-0.3,0.8-0.4,1.2c-0.1,0.3-0.3,0.6-0.3,0.7l-1.7-0.2c-0.3-0.9-0.6-1.6-0.8-2.3c-0.3-0.6-0.6-1.2-1-1.6
			c-0.3-0.4-0.7-0.7-1.2-0.9c-0.4-0.2-0.9-0.3-1.4-0.3c-0.6,0-1.2,0.1-1.7,0.4c-0.6,0.3-1,0.7-1.5,1.3s-0.8,1.4-1,2.4
			s-0.4,2.2-0.4,3.6c0,1.1,0.1,2.1,0.4,3c0.3,0.9,0.6,1.6,1.1,2.2c0.5,0.6,1.1,1.1,1.7,1.4c0.7,0.3,1.4,0.5,2.1,0.5
			c0.4,0,0.8,0,1.2-0.1c0.4-0.1,0.8-0.2,1.3-0.3c0.5-0.2,1-0.4,1.5-0.7s1.2-0.7,2-1.3L158.4,44.7z"/>
		<path d="M177.2,45.2c-2.1,1.5-3.8,2.6-5.2,3.3c-1.4,0.7-2.4,1-3.2,1c-0.7,0-1.3-0.1-1.9-0.4c-0.6-0.3-1.1-0.6-1.5-1.2
			s-0.8-1.2-1-1.9c-0.3-0.8-0.4-1.7-0.4-2.7V31.5h-2.6l-0.7-0.8l1.7-2.1h1.6v-4.3l5-3.6l0.9,0.8v7.1h6.5l0.8,0.9
			c-0.1,0.3-0.3,0.5-0.5,0.8c-0.2,0.3-0.4,0.6-0.6,0.8c-0.2,0.3-0.4,0.5-0.6,0.7c-0.2,0.2-0.4,0.4-0.5,0.5c-0.2-0.1-0.4-0.2-0.7-0.3
			c-0.3-0.1-0.6-0.2-0.9-0.3c-0.3-0.1-0.7-0.1-1-0.2s-0.7-0.1-1-0.1h-1.6v9.8c0,0.7,0,1.3,0.1,1.8c0.1,0.5,0.2,0.9,0.4,1.2
			s0.3,0.5,0.5,0.7c0.2,0.1,0.4,0.2,0.6,0.2c0.3,0,0.5,0,0.8-0.1c0.3-0.1,0.6-0.1,0.9-0.3s0.8-0.3,1.2-0.5c0.5-0.2,1-0.5,1.6-0.9
			L177.2,45.2z"/>
	</g>
	<rect x="51.9" y="-69.3" fill="none" width="78.1" height="44"/>
	<text transform="matrix(1 0 0 1 51.915 -66.0488)" display="none"><tspan x="0" y="0" display="inline" font-family="'Futura-Medium'" font-size="4">offset sides by 10px from outlined text;</tspan><tspan x="0" y="4.8" display="inline" font-family="'Futura-Medium'" font-size="4">offset artboard by 5px from button sides</tspan></text>
</g>
<g id="Outlined_Text">
</g>
<g id="Layer_5">
</g>
</svg>
