<?xml version="1.0" encoding="utf-8"?>
<!-- Generator: Adobe Illustrator 18.1.1, SVG Export Plug-In . SVG Version: 6.00 Build 0)  -->
<svg version="1.1" xmlns="http://www.w3.org/2000/svg" xmlns:xlink="http://www.w3.org/1999/xlink" x="0px" y="0px"
	 viewBox="0 0 206 69.5" enable-background="new 0 0 206 69.5" xml:space="preserve">
<g id="Inactive_Tab">
	<rect x="5" y="5" display="none" fill="#231F20" width="196" height="59.5"/>
</g>
<g id="Active_Tab">
	<rect x="5" y="5" display="none" fill="#E0150F" width="196" height="59.5"/>
</g>
<g id="Live_Text">
	<g>
		<path fill="#E0150F" d="M14.3,48.8V47c1.2-0.2,2-0.5,2.6-0.8c0.6-0.3,0.9-0.5,0.9-0.8V19.1c-0.7,0.1-1.3,0.2-1.9,0.3
			c-0.6,0.1-1.1,0.2-1.7,0.3L14,17.2c0.9-0.2,2-0.4,3.1-0.6c1.1-0.2,2.3-0.4,3.5-0.5c1.2-0.1,2.5-0.2,3.7-0.3
			c1.2-0.1,2.4-0.1,3.6-0.1c2,0,3.8,0.2,5.4,0.6c1.6,0.4,3,1,4.2,1.7c1.2,0.8,2.1,1.7,2.7,2.9c0.6,1.1,1,2.4,1,3.9
			c0,1.2-0.2,2.3-0.5,3.3c-0.3,1-0.8,1.9-1.3,2.7c-0.6,0.8-1.2,1.5-1.9,2.1c-0.7,0.6-1.5,1.1-2.3,1.5s-1.6,0.7-2.5,0.9
			c-0.8,0.2-1.6,0.3-2.4,0.3c-0.8,0-1.6-0.1-2.3-0.2c-0.8-0.1-1.4-0.3-2-0.6L25.2,32c0.7,0.3,1.3,0.5,1.9,0.6
			c0.5,0.1,1.1,0.1,1.7,0.1c0.7,0,1.5-0.1,2.2-0.4c0.7-0.3,1.4-0.7,1.9-1.2c0.6-0.6,1-1.3,1.3-2.2c0.3-0.9,0.5-1.9,0.5-3.1
			c0-1.2-0.2-2.3-0.6-3.2c-0.4-0.9-1-1.7-1.7-2.3c-0.7-0.6-1.6-1.1-2.6-1.4c-1-0.3-2.1-0.5-3.4-0.5c-0.3,0-0.7,0-1,0
			c-0.4,0-0.7,0-1.1,0v26.9c0,0.1,0.1,0.2,0.2,0.3c0.1,0.1,0.3,0.2,0.6,0.4c0.3,0.1,0.8,0.3,1.3,0.4c0.6,0.1,1.3,0.3,2.2,0.4v1.9
			H14.3z"/>
		<path fill="#E0150F" d="M61.6,38.3c0,1-0.1,1.9-0.4,2.9c-0.3,0.9-0.6,1.8-1.1,2.6c-0.5,0.8-1.1,1.6-1.7,2.3
			c-0.7,0.7-1.4,1.3-2.2,1.8c-0.8,0.5-1.7,0.9-2.6,1.2c-0.9,0.3-1.9,0.4-2.9,0.4c-1.5,0-2.9-0.3-4.2-0.8c-1.2-0.5-2.3-1.2-3.2-2.2
			c-0.9-0.9-1.6-2-2-3.3c-0.5-1.3-0.7-2.6-0.7-4.1c0-1,0.1-1.9,0.4-2.8c0.2-0.9,0.6-1.8,1-2.6s1-1.6,1.7-2.3
			c0.7-0.7,1.4-1.3,2.2-1.8c0.8-0.5,1.7-0.9,2.7-1.2c1-0.3,2-0.4,3.1-0.4c1.5,0,2.9,0.3,4.2,0.8c1.2,0.5,2.3,1.2,3.2,2.2
			c0.9,0.9,1.6,2,2,3.3C61.3,35.4,61.6,36.8,61.6,38.3z M55.4,39.4c0-1.1-0.1-2.2-0.3-3.3c-0.2-1-0.5-2-0.9-2.7s-0.9-1.4-1.4-1.9
			c-0.6-0.5-1.2-0.7-2-0.7c-0.8,0-1.5,0.2-2,0.6c-0.5,0.4-1,0.9-1.3,1.6c-0.3,0.7-0.5,1.5-0.7,2.5s-0.2,2-0.2,3.1
			c0,1.1,0.1,2.2,0.3,3.2c0.2,1,0.5,1.8,0.9,2.6c0.4,0.7,0.9,1.3,1.4,1.7c0.6,0.4,1.2,0.6,1.8,0.6c0.8,0,1.5-0.2,2-0.5
			s1-0.8,1.3-1.4c0.3-0.6,0.5-1.4,0.7-2.3S55.4,40.6,55.4,39.4z"/>
		<path fill="#E0150F" d="M82.7,28.9c0.1,0.1,0.1,0.3,0.1,0.6c0,0.3-0.1,0.8-0.1,1.3c-0.1,0.5-0.2,1.1-0.3,1.7s-0.3,1.2-0.4,1.8
			c-0.1,0.6-0.3,1.1-0.4,1.6c-0.2,0.5-0.3,0.9-0.4,1.1h-1.8c0-0.6-0.1-1.2-0.2-1.7c-0.1-0.6-0.3-1.1-0.5-1.5
			c-0.2-0.4-0.4-0.8-0.7-1.1c-0.3-0.3-0.6-0.4-1-0.4c-0.3,0-0.5,0-0.9,0.1s-0.7,0.2-1,0.4c-0.4,0.2-0.7,0.6-1.2,1.1
			c-0.4,0.5-0.8,1.1-1.3,2v9.9c0,0.2,0.3,0.4,0.9,0.7s1.6,0.5,3,0.7v1.8H63.9V47c1.9-0.4,2.8-0.9,2.8-1.3V34.5c0-0.5,0-0.9,0-1.2
			c0-0.3-0.1-0.6-0.1-0.8c0-0.2-0.1-0.4-0.2-0.5c-0.1-0.1-0.1-0.2-0.2-0.3c-0.1-0.1-0.2-0.2-0.3-0.3s-0.2-0.1-0.4-0.2
			c-0.2,0-0.4-0.1-0.6-0.1c-0.3,0-0.6,0-1-0.1v-1.7c0.9-0.1,1.7-0.2,2.3-0.3c0.6-0.1,1.2-0.2,1.7-0.3c0.5-0.1,1-0.2,1.6-0.4
			c0.5-0.1,1.1-0.3,1.8-0.5l1,1l0.3,2.6c0.4-0.5,0.8-0.9,1.3-1.4c0.5-0.4,1-0.8,1.6-1.1c0.6-0.3,1.2-0.6,1.8-0.8
			c0.6-0.2,1.2-0.3,1.9-0.3c0.6,0,1.2,0.1,1.8,0.3S82.2,28.6,82.7,28.9z"/>
		<path fill="#E0150F" d="M101,45.2c-2.1,1.5-3.8,2.6-5.2,3.3c-1.4,0.7-2.4,1-3.2,1c-0.7,0-1.3-0.1-1.9-0.4
			c-0.6-0.3-1.1-0.6-1.5-1.2s-0.8-1.2-1-1.9c-0.3-0.8-0.4-1.7-0.4-2.7V31.5h-2.6l-0.7-0.8l1.7-2.1h1.6v-4.3l5-3.6l0.9,0.8v7.1h6.5
			l0.8,0.9c-0.1,0.3-0.3,0.5-0.5,0.8c-0.2,0.3-0.4,0.6-0.6,0.8c-0.2,0.3-0.4,0.5-0.6,0.7c-0.2,0.2-0.4,0.4-0.5,0.5
			c-0.2-0.1-0.4-0.2-0.7-0.3c-0.3-0.1-0.6-0.2-0.9-0.3c-0.3-0.1-0.7-0.1-1-0.2s-0.7-0.1-1-0.1h-1.6v9.8c0,0.7,0,1.3,0.1,1.8
			c0.1,0.5,0.2,0.9,0.4,1.2s0.3,0.5,0.5,0.7c0.2,0.1,0.4,0.2,0.6,0.2c0.3,0,0.5,0,0.8-0.1c0.3-0.1,0.6-0.1,0.9-0.3s0.8-0.3,1.2-0.5
			c0.5-0.2,1-0.5,1.6-0.9L101,45.2z"/>
		<path fill="#E0150F" d="M122.7,17.2c0,0.2-0.1,0.4-0.2,0.7c-0.2,0.3-0.3,0.5-0.6,0.8c-0.2,0.3-0.5,0.6-0.8,0.9
			c-0.3,0.3-0.6,0.6-0.9,0.8c-0.3,0.2-0.5,0.5-0.8,0.6c-0.2,0.2-0.4,0.3-0.6,0.4c-0.7-0.9-1.4-1.6-2-2c-0.6-0.4-1.2-0.6-1.7-0.6
			c-0.4,0-0.7,0.1-1,0.3c-0.3,0.2-0.6,0.6-0.8,1.2c-0.2,0.6-0.4,1.4-0.5,2.5c-0.1,1-0.2,2.4-0.2,4v1.9h5.4l0.8,0.9
			c-0.1,0.3-0.3,0.5-0.5,0.8c-0.2,0.3-0.4,0.6-0.6,0.8c-0.2,0.3-0.4,0.5-0.6,0.7c-0.2,0.2-0.3,0.4-0.5,0.5c-0.3-0.2-0.8-0.3-1.4-0.5
			c-0.6-0.2-1.5-0.3-2.7-0.3v14.2c0,0.1,0.1,0.2,0.2,0.3c0.1,0.1,0.4,0.2,0.7,0.3c0.3,0.1,0.8,0.2,1.3,0.3c0.6,0.1,1.3,0.3,2.1,0.4
			v1.8h-13.1V47c1-0.2,1.7-0.4,2.2-0.6c0.4-0.3,0.7-0.5,0.7-0.6V31.5h-2.5l-0.7-0.8l1.7-2.1h1.5v-0.7c0-2.1,0.3-3.9,0.8-5.4
			c0.6-1.6,1.4-2.9,2.6-4.1c0.6-0.6,1.2-1.1,1.8-1.5s1.2-0.8,1.8-1c0.6-0.3,1.2-0.5,1.7-0.6c0.6-0.1,1.1-0.2,1.6-0.2
			c0.7,0,1.4,0.1,2.1,0.3c0.7,0.2,1.3,0.4,1.8,0.6c0.5,0.2,0.9,0.5,1.3,0.7C122.5,16.8,122.7,17,122.7,17.2z"/>
		<path fill="#E0150F" d="M140.8,38.3c0,1-0.1,1.9-0.4,2.9c-0.3,0.9-0.6,1.8-1.1,2.6c-0.5,0.8-1.1,1.6-1.7,2.3
			c-0.7,0.7-1.4,1.3-2.2,1.8s-1.7,0.9-2.6,1.2c-0.9,0.3-1.9,0.4-2.9,0.4c-1.5,0-2.9-0.3-4.2-0.8c-1.2-0.5-2.3-1.2-3.2-2.2
			c-0.9-0.9-1.6-2-2-3.3s-0.7-2.6-0.7-4.1c0-1,0.1-1.9,0.4-2.8c0.2-0.9,0.6-1.8,1-2.6c0.5-0.8,1-1.6,1.7-2.3
			c0.7-0.7,1.4-1.3,2.2-1.8c0.8-0.5,1.7-0.9,2.7-1.2c1-0.3,2-0.4,3.1-0.4c1.5,0,2.9,0.3,4.2,0.8c1.2,0.5,2.3,1.2,3.2,2.2
			c0.9,0.9,1.6,2,2,3.3C140.5,35.4,140.8,36.8,140.8,38.3z M134.6,39.4c0-1.1-0.1-2.2-0.3-3.3c-0.2-1-0.5-2-0.9-2.7
			c-0.4-0.8-0.9-1.4-1.4-1.9c-0.6-0.5-1.2-0.7-2-0.7c-0.8,0-1.5,0.2-2,0.6c-0.5,0.4-1,0.9-1.3,1.6c-0.3,0.7-0.5,1.5-0.7,2.5
			s-0.2,2-0.2,3.1c0,1.1,0.1,2.2,0.3,3.2c0.2,1,0.5,1.8,0.9,2.6c0.4,0.7,0.9,1.3,1.4,1.7s1.2,0.6,1.8,0.6c0.8,0,1.5-0.2,2-0.5
			c0.5-0.3,1-0.8,1.3-1.4s0.5-1.4,0.7-2.3S134.6,40.6,134.6,39.4z"/>
		<path fill="#E0150F" d="M143.2,48.8V47c0.6-0.1,1.1-0.2,1.5-0.3c0.4-0.1,0.7-0.2,0.9-0.3s0.4-0.2,0.5-0.3s0.1-0.2,0.1-0.3V21.5
			c0-0.7,0-1.2-0.1-1.5c-0.1-0.4-0.2-0.6-0.4-0.8c-0.2-0.2-0.5-0.3-0.9-0.4c-0.4-0.1-0.9-0.1-1.5-0.2v-1.7c0.8-0.1,1.5-0.2,2.2-0.3
			c0.7-0.1,1.3-0.2,1.9-0.4s1.2-0.3,1.8-0.5s1.2-0.4,1.8-0.6l1,1v29.7c0,0.1,0,0.2,0.1,0.3c0.1,0.1,0.3,0.2,0.5,0.3
			c0.2,0.1,0.5,0.2,0.9,0.3c0.4,0.1,0.9,0.2,1.5,0.3v1.8H143.2z"/>
		<path fill="#E0150F" d="M157.2,48.8V47c1-0.2,1.7-0.4,2.2-0.7c0.5-0.2,0.7-0.5,0.7-0.7V34.9c0-0.7,0-1.3,0-1.8
			c0-0.5-0.1-0.8-0.3-1.1c-0.2-0.3-0.4-0.4-0.8-0.6s-1-0.2-1.7-0.3v-1.7c1.4-0.2,2.6-0.4,3.8-0.6c1.1-0.2,2.3-0.5,3.3-0.9h1.6v17.8
			c0,0.2,0.2,0.4,0.6,0.6c0.4,0.3,1.2,0.5,2.2,0.7v1.8H157.2z M166.8,21.4c0,0.5-0.1,1-0.3,1.4c-0.2,0.4-0.5,0.8-0.9,1.1
			s-0.8,0.5-1.3,0.7c-0.5,0.2-1,0.2-1.6,0.2c-0.4,0-0.9,0-1.3-0.1c-0.4-0.1-0.8-0.2-1.1-0.5c-0.3-0.2-0.6-0.5-0.8-0.8
			c-0.2-0.3-0.3-0.7-0.3-1.1c0-0.5,0.1-1,0.3-1.4c0.2-0.4,0.5-0.8,0.9-1.1c0.4-0.3,0.8-0.5,1.3-0.7c0.5-0.2,1-0.2,1.6-0.2
			c0.4,0,0.8,0,1.2,0.1c0.4,0.1,0.8,0.2,1.1,0.4c0.3,0.2,0.6,0.5,0.8,0.8C166.7,20.5,166.8,20.9,166.8,21.4z"/>
		<path fill="#E0150F" d="M192.2,38.3c0,1-0.1,1.9-0.4,2.9c-0.3,0.9-0.6,1.8-1.1,2.6c-0.5,0.8-1.1,1.6-1.7,2.3
			c-0.7,0.7-1.4,1.3-2.2,1.8s-1.7,0.9-2.6,1.2c-0.9,0.3-1.9,0.4-2.9,0.4c-1.5,0-2.9-0.3-4.2-0.8c-1.2-0.5-2.3-1.2-3.2-2.2
			c-0.9-0.9-1.6-2-2-3.3s-0.7-2.6-0.7-4.1c0-1,0.1-1.9,0.4-2.8c0.2-0.9,0.6-1.8,1-2.6c0.5-0.8,1-1.6,1.7-2.3
			c0.7-0.7,1.4-1.3,2.2-1.8c0.8-0.5,1.7-0.9,2.7-1.2c1-0.3,2-0.4,3.1-0.4c1.5,0,2.9,0.3,4.2,0.8c1.2,0.5,2.3,1.2,3.2,2.2
			c0.9,0.9,1.6,2,2,3.3C192,35.4,192.2,36.8,192.2,38.3z M186,39.4c0-1.1-0.1-2.2-0.3-3.3c-0.2-1-0.5-2-0.9-2.7
			c-0.4-0.8-0.9-1.4-1.4-1.9c-0.6-0.5-1.2-0.7-2-0.7c-0.8,0-1.5,0.2-2,0.6c-0.5,0.4-1,0.9-1.3,1.6c-0.3,0.7-0.5,1.5-0.7,2.5
			s-0.2,2-0.2,3.1c0,1.1,0.1,2.2,0.3,3.2c0.2,1,0.5,1.8,0.9,2.6c0.4,0.7,0.9,1.3,1.4,1.7s1.2,0.6,1.8,0.6c0.8,0,1.5-0.2,2-0.5
			c0.5-0.3,1-0.8,1.3-1.4s0.5-1.4,0.7-2.3S186,40.6,186,39.4z"/>
	</g>
	<rect x="51.9" y="-69.3" fill="none" width="78.1" height="44"/>
	<text transform="matrix(1 0 0 1 51.915 -66.0488)" display="none"><tspan x="0" y="0" display="inline" font-family="'Futura-Medium'" font-size="4">offset sides by 10px from outlined text;</tspan><tspan x="0" y="4.8" display="inline" font-family="'Futura-Medium'" font-size="4">offset artboard by 5px from button sides</tspan></text>
</g>
<g id="Outlined_Text">
</g>
<g id="Layer_5">
</g>
</svg>
