<?xml version="1.0" encoding="utf-8"?>
<!-- Generator: Adobe Illustrator 18.1.1, SVG Export Plug-In . SVG Version: 6.00 Build 0)  -->
<svg version="1.1" xmlns="http://www.w3.org/2000/svg" xmlns:xlink="http://www.w3.org/1999/xlink" x="0px" y="0px"
	 viewBox="0 0 206 69.5" enable-background="new 0 0 206 69.5" xml:space="preserve">
<g id="Inactive_Tab">
	<rect x="5" y="5" display="none" fill="#231F20" width="196" height="59.5"/>
</g>
<g id="Active_Tab">
	<rect x="5" y="5" display="none" fill="#E0150F" width="196" height="59.5"/>
</g>
<g id="Live_Text">
	<g>
		<path fill="#E0150F" d="M53.1,39.2c0,0.8-0.1,1.6-0.3,2.4c-0.2,0.8-0.6,1.6-1,2.4c-0.5,0.8-1,1.5-1.7,2.2
			c-0.7,0.7-1.5,1.3-2.5,1.8c-1,0.5-2,0.9-3.2,1.2c-1.2,0.3-2.5,0.5-4,0.5c-0.6,0-1.3-0.1-2.1-0.2s-1.6-0.3-2.4-0.5
			s-1.6-0.5-2.4-0.8c-0.8-0.3-1.5-0.7-2.1-1.1c-0.1,0-0.2-0.2-0.2-0.5s-0.1-0.7-0.1-1.1c0-0.5,0-1,0-1.5c0-0.6,0-1.2,0.1-1.7
			c0-0.6,0.1-1.2,0.2-1.7s0.2-1.1,0.3-1.5l1.8,0.1c0.4,1,0.9,1.9,1.4,2.8c0.6,0.8,1.2,1.6,1.9,2.2s1.5,1.1,2.3,1.4
			c0.8,0.3,1.6,0.5,2.5,0.5c0.8,0,1.5-0.1,2.2-0.3s1.4-0.5,1.9-1c0.5-0.4,1-0.9,1.3-1.6c0.3-0.6,0.5-1.3,0.5-2.2
			c0-1-0.2-1.9-0.7-2.7c-0.5-0.8-1.1-1.4-1.8-2c-0.8-0.6-1.6-1.1-2.6-1.6c-1-0.5-2-1-3-1.4c-1-0.5-2-1-3-1.5c-1-0.5-1.8-1.1-2.6-1.8
			c-0.8-0.7-1.4-1.5-1.8-2.4c-0.5-0.9-0.7-2-0.7-3.2c0-0.8,0.2-1.7,0.7-2.7c0.5-1,1.2-1.9,2.1-2.8s2.2-1.6,3.7-2.2
			c1.5-0.6,3.3-0.9,5.3-0.9c0.9,0,1.8,0.1,2.7,0.2c0.9,0.1,1.7,0.3,2.5,0.5c0.8,0.2,1.5,0.5,2,0.7c0.6,0.3,1,0.6,1.3,1
			c0.1,0.1,0.1,0.2,0.1,0.5c0,0.2-0.1,0.5-0.2,0.8c-0.1,0.3-0.3,0.7-0.4,1.1c-0.2,0.4-0.4,0.7-0.6,1.1s-0.4,0.7-0.6,0.9
			c-0.2,0.3-0.4,0.5-0.5,0.6l-1.7-0.2c-0.4-0.8-0.8-1.5-1.3-2c-0.5-0.5-1-1-1.5-1.3c-0.5-0.3-1.1-0.6-1.6-0.7s-1.1-0.2-1.5-0.2
			c-0.9,0-1.6,0.1-2.2,0.3c-0.6,0.2-1.1,0.5-1.5,0.9c-0.4,0.4-0.7,0.8-0.9,1.3c-0.2,0.5-0.3,0.9-0.3,1.4c0,0.8,0.2,1.5,0.7,2.1
			c0.5,0.6,1.1,1.2,1.9,1.7c0.8,0.5,1.6,1,2.6,1.5c1,0.5,2,1,3,1.5c1,0.5,2,1.1,3,1.7s1.8,1.3,2.6,2c0.8,0.8,1.4,1.6,1.9,2.6
			C52.8,36.8,53.1,37.9,53.1,39.2z"/>
		<path fill="#E0150F" d="M78,46.2c-0.6,0.4-1.3,0.8-2,1.2c-0.7,0.4-1.4,0.8-2,1.1c-0.7,0.3-1.3,0.6-1.8,0.7c-0.5,0.2-1,0.3-1.2,0.3
			c-0.6,0-1-0.3-1.4-0.9c-0.4-0.6-0.6-1.4-0.7-2.5c-0.7,0.7-1.3,1.2-2,1.6c-0.7,0.4-1.3,0.8-1.9,1c-0.6,0.3-1.2,0.4-1.8,0.5
			s-1.1,0.2-1.5,0.2c-0.6,0-1.3-0.1-1.9-0.3c-0.6-0.2-1.1-0.5-1.6-1c-0.5-0.4-0.9-1-1.2-1.6s-0.4-1.4-0.4-2.2c0-0.9,0.2-1.8,0.5-2.4
			s0.8-1.3,1.3-1.8c0.3-0.3,0.8-0.7,1.2-1c0.5-0.3,1.1-0.6,1.8-0.9c0.8-0.3,1.7-0.6,2.9-0.9c1.2-0.3,2.7-0.6,4.4-0.9V34
			c0-0.4,0-0.8-0.1-1.2s-0.2-0.7-0.4-0.9s-0.5-0.5-0.8-0.6c-0.3-0.2-0.7-0.2-1.2-0.2c-0.3,0-0.6,0.1-0.9,0.2
			c-0.3,0.1-0.6,0.3-0.8,0.5c-0.2,0.2-0.4,0.5-0.6,0.9c-0.1,0.3-0.2,0.7-0.1,1.2c0,0.1-0.1,0.2-0.4,0.3s-0.6,0.3-1.1,0.4
			c-0.4,0.2-0.9,0.3-1.4,0.4c-0.5,0.1-1,0.3-1.5,0.4s-0.9,0.2-1.3,0.3c-0.4,0.1-0.6,0.1-0.7,0l-0.5-1.3c0.4-0.9,0.9-1.8,1.7-2.5
			c0.8-0.8,1.7-1.5,2.7-2s2.2-1,3.4-1.4c1.2-0.3,2.5-0.5,3.8-0.5c1.1,0,2,0.1,2.7,0.4c0.8,0.3,1.4,0.7,1.9,1.2s0.9,1.1,1.1,1.7
			c0.2,0.7,0.3,1.4,0.3,2.1v9.9c0,0.6,0.1,1,0.2,1.3c0.2,0.3,0.4,0.4,0.6,0.4c0.1,0,0.2,0,0.3,0s0.2,0,0.4-0.1
			c0.1,0,0.3-0.1,0.5-0.2c0.2-0.1,0.4-0.2,0.7-0.3L78,46.2z M64.6,45.4c0.2,0,0.5,0,0.7-0.1c0.3,0,0.6-0.1,0.9-0.3
			c0.3-0.2,0.7-0.4,1.1-0.6c0.4-0.3,0.9-0.6,1.4-1.1v-4.6c-0.8,0.1-1.4,0.3-2,0.4c-0.5,0.1-1,0.2-1.3,0.4c-0.4,0.1-0.7,0.3-0.9,0.4
			c-0.2,0.1-0.4,0.3-0.6,0.5c-0.4,0.4-0.7,0.8-0.9,1.2s-0.3,0.9-0.3,1.5c0,0.5,0.1,0.9,0.2,1.2c0.1,0.3,0.3,0.5,0.5,0.7
			c0.2,0.2,0.4,0.3,0.6,0.4C64.2,45.3,64.4,45.4,64.6,45.4z"/>
		<path fill="#E0150F" d="M105.7,48.8V47c0.5-0.1,0.9-0.3,1.3-0.4c0.3-0.1,0.6-0.2,0.7-0.3c0.2-0.1,0.3-0.2,0.3-0.3
			c0.1-0.1,0.1-0.2,0.1-0.3v-9.8c0-0.9,0-1.6-0.1-2.1c-0.1-0.5-0.2-0.9-0.4-1.2c-0.2-0.3-0.4-0.4-0.7-0.5s-0.6-0.1-1-0.1
			c-0.5,0-1.2,0.1-1.9,0.4c-0.8,0.3-1.6,0.7-2.5,1.3v12c0,0.1,0,0.2,0.1,0.3c0.1,0.1,0.2,0.2,0.4,0.3c0.2,0.1,0.5,0.2,0.8,0.3
			c0.3,0.1,0.8,0.3,1.4,0.4v1.8H93.1V47c0.5-0.1,0.9-0.3,1.3-0.4c0.3-0.1,0.6-0.2,0.7-0.3c0.2-0.1,0.3-0.2,0.3-0.3
			c0.1-0.1,0.1-0.2,0.1-0.3v-9.8c0-0.9,0-1.6-0.1-2.1c-0.1-0.5-0.2-0.9-0.3-1.2c-0.2-0.3-0.4-0.4-0.6-0.5s-0.6-0.1-1-0.1
			c-0.6,0-1.2,0.1-2,0.4s-1.6,0.7-2.7,1.3v12c0,0.2,0.2,0.4,0.6,0.7c0.4,0.2,1.1,0.5,2,0.7v1.8H80.1V47c1-0.2,1.7-0.5,2.1-0.7
			c0.5-0.2,0.7-0.4,0.7-0.7V34c0-0.6,0-1,0-1.4c0-0.3-0.1-0.6-0.3-0.8s-0.5-0.3-0.8-0.4c-0.4-0.1-0.9-0.2-1.6-0.3v-1.7
			c0.8-0.1,1.6-0.2,2.2-0.3c0.7-0.1,1.3-0.2,1.9-0.3c0.6-0.1,1.1-0.3,1.7-0.4c0.5-0.2,1.1-0.3,1.6-0.5l1,1l0.2,1.9
			c0.9-0.6,1.7-1.2,2.4-1.5c0.7-0.4,1.3-0.7,1.9-0.9c0.6-0.2,1.2-0.3,1.7-0.4c0.5-0.1,1.1-0.1,1.6-0.1c0.7,0,1.3,0.1,1.8,0.3
			s1,0.4,1.3,0.7c0.4,0.3,0.7,0.6,0.9,0.9c0.2,0.3,0.4,0.6,0.5,0.9l0.1,0.2c0.9-0.6,1.7-1.2,2.4-1.5c0.7-0.4,1.4-0.7,2-0.9
			c0.6-0.2,1.2-0.4,1.7-0.4s1.1-0.1,1.6-0.1c0.7,0,1.4,0.1,2,0.3c0.6,0.2,1.2,0.5,1.7,1c0.5,0.5,0.9,1.1,1.2,1.8s0.4,1.7,0.4,2.8
			v11.9c0,0.2,0.2,0.4,0.7,0.6c0.5,0.2,1.2,0.4,2.4,0.7v1.8H105.7z"/>
		<path fill="#E0150F" d="M141.5,37.9c0,1-0.1,2-0.4,2.9c-0.3,1-0.6,1.9-1.1,2.7c-0.4,0.9-1,1.6-1.5,2.4c-0.6,0.7-1.2,1.4-1.8,1.9
			s-1.3,0.9-1.9,1.2c-0.6,0.3-1.2,0.4-1.8,0.4c-0.4,0-0.8,0-1.2-0.1c-0.4-0.1-0.8-0.2-1.3-0.4s-1-0.4-1.5-0.7
			c-0.5-0.3-1.1-0.7-1.8-1.1v9c0,0.2,0.3,0.5,0.8,0.7s1.5,0.5,2.9,0.7v1.8h-12.4v-1.8c1-0.2,1.7-0.5,2.1-0.7
			c0.5-0.2,0.7-0.4,0.7-0.7V34c0-0.5,0-1-0.1-1.3s-0.1-0.6-0.3-0.8c-0.2-0.2-0.5-0.4-0.8-0.5c-0.4-0.1-0.9-0.2-1.6-0.2v-1.7
			c0.9-0.1,1.7-0.2,2.4-0.3c0.7-0.1,1.3-0.2,1.8-0.3s1.1-0.2,1.6-0.4c0.5-0.1,1-0.3,1.6-0.5l1,1L127,31c0.8-0.7,1.6-1.2,2.3-1.6
			c0.7-0.4,1.3-0.7,1.9-0.9c0.6-0.2,1.1-0.4,1.5-0.5c0.5-0.1,0.9-0.1,1.3-0.1c1,0,1.9,0.2,2.8,0.6c0.9,0.4,1.7,1,2.4,1.8
			s1.2,1.8,1.7,3.1S141.5,36.1,141.5,37.9z M135.9,39.6c0-1.4-0.1-2.6-0.4-3.6c-0.3-1-0.7-1.7-1.1-2.3c-0.5-0.6-1-1-1.6-1.3
			c-0.6-0.3-1.2-0.4-1.8-0.4c-0.3,0-0.5,0-0.7,0c-0.2,0-0.4,0.1-0.7,0.2c-0.3,0.1-0.6,0.3-1,0.5s-0.9,0.5-1.5,0.9v10.2
			c0.8,0.4,1.5,0.8,2,1c0.6,0.2,1,0.4,1.4,0.5c0.4,0.1,0.8,0.2,1.1,0.2c0.3,0,0.6,0,1,0c1,0,1.8-0.5,2.4-1.6
			C135.7,43,136,41.5,135.9,39.6z"/>
		<path fill="#E0150F" d="M143.9,48.8V47c0.6-0.1,1.1-0.2,1.5-0.3c0.4-0.1,0.7-0.2,0.9-0.3s0.4-0.2,0.5-0.3s0.1-0.2,0.1-0.3V21.5
			c0-0.7,0-1.2-0.1-1.5c-0.1-0.4-0.2-0.6-0.4-0.8c-0.2-0.2-0.5-0.3-0.9-0.4c-0.4-0.1-0.9-0.1-1.5-0.2v-1.7c0.8-0.1,1.5-0.2,2.2-0.3
			c0.7-0.1,1.3-0.2,1.9-0.4s1.2-0.3,1.8-0.5s1.2-0.4,1.8-0.6l1,1v29.7c0,0.1,0,0.2,0.1,0.3c0.1,0.1,0.3,0.2,0.5,0.3
			c0.2,0.1,0.5,0.2,0.9,0.3c0.4,0.1,0.9,0.2,1.5,0.3v1.8H143.9z"/>
		<path fill="#E0150F" d="M177.3,36.9c-0.1,0.1-0.3,0.3-0.6,0.5c-0.3,0.2-0.6,0.4-0.9,0.5s-0.6,0.3-1,0.5c-0.3,0.2-0.6,0.3-0.8,0.4
			h-9.9c0,1,0.2,1.9,0.4,2.8c0.2,0.8,0.6,1.5,1,2.1s1,1,1.6,1.4s1.3,0.5,2.1,0.5c0.5,0,0.9,0,1.3-0.1c0.4-0.1,0.9-0.2,1.4-0.3
			c0.5-0.2,1.1-0.4,1.7-0.8c0.6-0.3,1.4-0.8,2.3-1.4c0.1,0,0.2,0.1,0.3,0.3c0.1,0.2,0.3,0.3,0.4,0.5c0.1,0.2,0.2,0.3,0.3,0.5
			s0.2,0.2,0.2,0.3c-1,1-2,1.8-2.8,2.5s-1.6,1.1-2.4,1.5c-0.8,0.4-1.5,0.6-2.3,0.7s-1.6,0.2-2.5,0.2c-1.3,0-2.5-0.3-3.6-0.8
			c-1.1-0.5-2.1-1.2-2.9-2.1s-1.5-2-2-3.3c-0.5-1.3-0.7-2.7-0.7-4.2c0-2,0.4-3.7,1.1-5.2c0.7-1.5,1.8-2.8,3.3-3.9
			c0.8-0.6,1.8-1.1,2.9-1.5s2.3-0.6,3.5-0.6c1.4,0,2.7,0.2,3.7,0.7c1.1,0.5,2,1.1,2.7,1.9c0.7,0.8,1.2,1.8,1.6,2.9
			C177.1,34.5,177.3,35.7,177.3,36.9z M167.9,30.6c-0.7,0-1.2,0.1-1.7,0.4c-0.5,0.3-0.8,0.6-1.1,1.1s-0.5,1.1-0.7,1.7
			c-0.2,0.7-0.3,1.5-0.3,2.3h6.6c0.3,0,0.6-0.1,0.7-0.2s0.2-0.3,0.2-0.6c0-0.5-0.1-1-0.2-1.5c-0.1-0.6-0.3-1.1-0.6-1.6
			c-0.3-0.5-0.7-0.9-1.1-1.2C169.1,30.8,168.6,30.6,167.9,30.6z"/>
	</g>
	<rect x="51.9" y="-69.3" fill="none" width="78.1" height="44"/>
	<text transform="matrix(1 0 0 1 51.915 -66.0488)" display="none"><tspan x="0" y="0" display="inline" font-family="'Futura-Medium'" font-size="4">offset sides by 10px from outlined text;</tspan><tspan x="0" y="4.8" display="inline" font-family="'Futura-Medium'" font-size="4">offset artboard by 5px from button sides</tspan></text>
</g>
<g id="Outlined_Text">
</g>
<g id="Layer_5">
</g>
</svg>
