<?xml version="1.0" encoding="utf-8"?>
<!-- Generator: Adobe Illustrator 18.1.1, SVG Export Plug-In . SVG Version: 6.00 Build 0)  -->
<svg version="1.1" xmlns="http://www.w3.org/2000/svg" xmlns:xlink="http://www.w3.org/1999/xlink" x="0px" y="0px"
	 viewBox="0 0 206 69.5" enable-background="new 0 0 206 69.5" xml:space="preserve">
<g id="Inactive_Tab">
	<rect x="5" y="5" display="none" fill="#231F20" width="196" height="59.5"/>
</g>
<g id="Active_Tab">
	<rect x="5" y="5" display="none" fill="#E0150F" width="196" height="59.5"/>
</g>
<g id="Live_Text">
	<g>
		<path fill="#E0150F" d="M51.6,37.8l-2.5,7.4c-0.2,0.5,0,0.9,0.6,1.2c0.6,0.2,1.6,0.4,3,0.6v1.9H41.5V47c1.2-0.2,2.1-0.4,2.7-0.6
			c0.6-0.2,1-0.6,1.2-1.1l9-27.4c0.4-0.3,0.9-0.7,1.3-1c0.5-0.3,1-0.6,1.5-0.8c0.5-0.2,1-0.4,1.5-0.6c0.5-0.2,1-0.3,1.4-0.5
			l10.8,30.2c0.1,0.2,0.2,0.5,0.3,0.6s0.3,0.4,0.6,0.5c0.2,0.1,0.5,0.3,0.9,0.4c0.4,0.1,0.8,0.2,1.4,0.3v1.9H61.3V47
			c1.3-0.1,2.2-0.3,2.7-0.5c0.5-0.3,0.6-0.7,0.4-1.2l-2.6-7.4H51.6z M60.7,34.7l-4.2-12l-3.9,12H60.7z"/>
		<path fill="#E0150F" d="M97.5,37.7c0,0.8-0.2,1.7-0.5,2.6c-0.3,0.9-0.8,1.8-1.4,2.7c-0.6,0.9-1.3,1.7-2,2.5
			c-0.8,0.8-1.6,1.5-2.5,2.1c-0.9,0.6-1.8,1.1-2.7,1.4c-0.9,0.3-1.8,0.5-2.7,0.5c-0.4,0-1-0.1-1.6-0.2s-1.3-0.3-2.1-0.6
			s-1.5-0.5-2.4-0.9s-1.6-0.7-2.4-1.1V21.5c0-0.7,0-1.2-0.1-1.5c-0.1-0.4-0.2-0.6-0.3-0.8c-0.2-0.2-0.4-0.3-0.8-0.4
			c-0.3-0.1-0.8-0.1-1.4-0.2v-1.7c0.8-0.1,1.5-0.2,2.1-0.3s1.3-0.2,1.9-0.4c0.6-0.1,1.2-0.3,1.8-0.5s1.1-0.4,1.7-0.6
			c0.1,0.1,0.1,0.1,0.3,0.2s0.2,0.2,0.3,0.3c0.1,0.1,0.3,0.3,0.4,0.4v14.8c0.7-0.5,1.4-1,2.1-1.4c0.7-0.4,1.4-0.7,2-0.9
			c0.6-0.2,1.2-0.4,1.8-0.5c0.5-0.1,1-0.1,1.5-0.1c1.1,0,2.1,0.2,3,0.7c0.9,0.5,1.6,1.1,2.2,2c0.6,0.9,1.1,1.9,1.4,3.1
			S97.5,36.2,97.5,37.7z M92,39.7c0-1.5-0.1-2.7-0.4-3.7c-0.2-1-0.6-1.8-1-2.4c-0.4-0.6-0.9-1-1.5-1.3C88.6,32.1,88,32,87.4,32
			c-0.5,0-1.1,0.1-1.8,0.4s-1.5,0.7-2.5,1.3V44c1.2,0.6,2.1,1,2.9,1.2c0.8,0.3,1.4,0.4,1.8,0.4c0.7,0,1.3-0.1,1.9-0.4
			c0.5-0.3,1-0.7,1.3-1.2c0.3-0.5,0.6-1.1,0.8-1.9S92,40.6,92,39.7z"/>
		<path fill="#E0150F" d="M121.4,38.3c0,1-0.1,1.9-0.4,2.9c-0.3,0.9-0.6,1.8-1.1,2.6c-0.5,0.8-1.1,1.6-1.7,2.3
			c-0.7,0.7-1.4,1.3-2.2,1.8s-1.7,0.9-2.6,1.2c-0.9,0.3-1.9,0.4-2.9,0.4c-1.5,0-2.9-0.3-4.2-0.8c-1.2-0.5-2.3-1.2-3.2-2.2
			c-0.9-0.9-1.6-2-2-3.3s-0.7-2.6-0.7-4.1c0-1,0.1-1.9,0.4-2.8c0.2-0.9,0.6-1.8,1-2.6c0.5-0.8,1-1.6,1.7-2.3
			c0.7-0.7,1.4-1.3,2.2-1.8c0.8-0.5,1.7-0.9,2.7-1.2c1-0.3,2-0.4,3.1-0.4c1.5,0,2.9,0.3,4.2,0.8c1.2,0.5,2.3,1.2,3.2,2.2
			c0.9,0.9,1.6,2,2,3.3C121.2,35.4,121.4,36.8,121.4,38.3z M115.2,39.4c0-1.1-0.1-2.2-0.3-3.3c-0.2-1-0.5-2-0.9-2.7
			c-0.4-0.8-0.9-1.4-1.4-1.9c-0.6-0.5-1.2-0.7-2-0.7c-0.8,0-1.5,0.2-2,0.6c-0.5,0.4-1,0.9-1.3,1.6c-0.3,0.7-0.5,1.5-0.7,2.5
			s-0.2,2-0.2,3.1c0,1.1,0.1,2.2,0.3,3.2c0.2,1,0.5,1.8,0.9,2.6c0.4,0.7,0.9,1.3,1.4,1.7s1.2,0.6,1.8,0.6c0.8,0,1.5-0.2,2-0.5
			c0.5-0.3,1-0.8,1.3-1.4s0.5-1.4,0.7-2.3S115.2,40.6,115.2,39.4z"/>
		<path fill="#E0150F" d="M148.2,46.2c-0.5,0.3-1.2,0.7-1.9,1.1c-0.7,0.4-1.4,0.8-2,1.1c-0.7,0.3-1.3,0.6-1.8,0.8
			c-0.5,0.2-0.9,0.3-1,0.3c-0.3,0-0.5,0-0.8-0.1c-0.3-0.1-0.5-0.2-0.7-0.5c-0.2-0.2-0.4-0.6-0.6-1c-0.2-0.5-0.3-1-0.4-1.8
			c-0.9,0.7-1.7,1.3-2.4,1.8s-1.3,0.8-1.9,1c-0.6,0.2-1.1,0.4-1.6,0.5c-0.5,0.1-1,0.1-1.4,0.1c-0.7,0-1.4-0.1-2-0.3
			c-0.7-0.2-1.3-0.5-1.8-1c-0.5-0.5-1-1.2-1.3-2.1c-0.3-0.9-0.5-2-0.5-3.4V34c0-0.7,0-1.2,0-1.6c0-0.4-0.1-0.7-0.3-0.9
			c-0.2-0.2-0.4-0.3-0.8-0.4c-0.4-0.1-0.9-0.1-1.5-0.2v-1.7c0.8-0.1,1.5-0.1,2.2-0.2s1.3-0.1,1.9-0.2c0.6-0.1,1.2-0.2,1.8-0.3
			c0.6-0.1,1.2-0.3,1.8-0.5l0.8,1.1v12.4c0,0.9,0.1,1.5,0.2,2.1c0.1,0.5,0.2,0.9,0.4,1.2s0.4,0.5,0.7,0.6s0.6,0.1,1,0.1
			c0.2,0,0.5,0,0.9-0.1c0.3-0.1,0.7-0.2,1.1-0.3c0.4-0.2,0.8-0.4,1.3-0.7c0.5-0.3,1-0.7,1.6-1.1V34c0-0.7,0-1.2-0.1-1.6
			c0-0.4-0.2-0.7-0.3-0.9c-0.2-0.2-0.5-0.4-0.8-0.5c-0.4-0.1-0.9-0.1-1.6-0.2v-1.7c1.6-0.1,3-0.3,4.3-0.5c1.2-0.2,2.4-0.4,3.6-0.7
			l0.9,1.1v13.4c0,0.5,0,0.8,0,1.1s0,0.5,0.1,0.7s0.1,0.3,0.2,0.4c0.1,0.1,0.1,0.2,0.2,0.2c0.1,0.1,0.2,0.1,0.3,0.1s0.2,0,0.4,0
			c0.2,0,0.4-0.1,0.6-0.2c0.2-0.1,0.5-0.2,0.9-0.4L148.2,46.2z"/>
		<path fill="#E0150F" d="M164.8,45.2c-2.1,1.5-3.8,2.6-5.2,3.3c-1.4,0.7-2.4,1-3.2,1c-0.7,0-1.3-0.1-1.9-0.4
			c-0.6-0.3-1.1-0.6-1.5-1.2s-0.8-1.2-1-1.9c-0.3-0.8-0.4-1.7-0.4-2.7V31.5H149l-0.7-0.8l1.7-2.1h1.6v-4.3l5-3.6l0.9,0.8v7.1h6.5
			l0.8,0.9c-0.1,0.3-0.3,0.5-0.5,0.8c-0.2,0.3-0.4,0.6-0.6,0.8c-0.2,0.3-0.4,0.5-0.6,0.7c-0.2,0.2-0.4,0.4-0.5,0.5
			c-0.2-0.1-0.4-0.2-0.7-0.3c-0.3-0.1-0.6-0.2-0.9-0.3c-0.3-0.1-0.7-0.1-1-0.2s-0.7-0.1-1-0.1h-1.6v9.8c0,0.7,0,1.3,0.1,1.8
			c0.1,0.5,0.2,0.9,0.4,1.2s0.3,0.5,0.5,0.7c0.2,0.1,0.4,0.2,0.6,0.2c0.3,0,0.5,0,0.8-0.1c0.3-0.1,0.6-0.1,0.9-0.3s0.8-0.3,1.2-0.5
			c0.5-0.2,1-0.5,1.6-0.9L164.8,45.2z"/>
	</g>
	<rect x="51.9" y="-69.3" fill="none" width="78.1" height="44"/>
	<text transform="matrix(1 0 0 1 51.915 -66.0488)" display="none"><tspan x="0" y="0" display="inline" font-family="'Futura-Medium'" font-size="4">offset sides by 10px from outlined text;</tspan><tspan x="0" y="4.8" display="inline" font-family="'Futura-Medium'" font-size="4">offset artboard by 5px from button sides</tspan></text>
</g>
<g id="Outlined_Text">
</g>
<g id="Layer_5">
</g>
</svg>
