<?xml version="1.0" encoding="utf-8"?>
<!-- Generator: Adobe Illustrator 18.1.1, SVG Export Plug-In . SVG Version: 6.00 Build 0)  -->
<svg version="1.1" id="Layer_1" xmlns="http://www.w3.org/2000/svg" xmlns:xlink="http://www.w3.org/1999/xlink" x="0px" y="0px"
	 viewBox="0 0 155 95" enable-background="new 0 0 155 95" xml:space="preserve">
<g id="Inactive_Tab">
	<path fill="#E0150F" d="M152.5,92.5H2.5v-90H140c6.9,0,12.5,5.6,12.5,12.5V92.5z"/>
</g>
<linearGradient id="SVGID_1_" gradientUnits="userSpaceOnUse" x1="77.5" y1="2.5" x2="77.5" y2="92.5">
	<stop  offset="0.4982" style="stop-color:#E0150F"/>
	<stop  offset="1" style="stop-color:#000000"/>
</linearGradient>
<path fill="url(#SVGID_1_)" d="M152.5,92.5H2.5v-90H140c6.9,0,12.5,5.6,12.5,12.5V92.5z"/>
<g id="Active_Tab" display="none">
	<path display="inline" fill="none" stroke="#231F20" stroke-miterlimit="10" d="M2.5,92.5v-90H140c6.9,0,12.5,5.6,12.5,12.5v77.5"
		/>
	<path display="inline" fill="#E0150F" d="M152.5,92.5H2.5v-90H140c6.9,0,12.5,5.6,12.5,12.5V92.5z"/>
</g>
<g id="Live_Text" display="none">
	<rect x="12" y="20" display="inline" fill="none" width="128" height="40"/>
	
		<text transform="matrix(1 0 0 1 17.9775 44.7197)" display="inline" fill="#FFFFFF" font-family="'Futura-CondensedExtraBold'" font-size="30">Portfolio</text>
</g>
<g id="Outlined_Text">
	<g>
		<path fill="#FFFFFF" d="M25.5,44.7h-6.1V22.1h5.9c2.9,0,5.1,0.6,6.6,1.8c1.7,1.4,2.5,3.4,2.5,5.9c0,2.7-0.9,4.8-2.7,6.1
			c-1.2,0.9-3,1.4-5.3,1.4h-1L25.5,44.7L25.5,44.7z M25.5,32.5h0.3c0.7,0,1.3-0.2,1.8-0.7s0.7-1.1,0.7-1.9s-0.2-1.4-0.6-1.9
			s-1-0.7-1.6-0.7h-0.4v5.2H25.5z"/>
		<path fill="#FFFFFF" d="M50.4,37c0,2.3-0.7,4.2-2,5.6c-1.4,1.4-3.2,2.1-5.5,2.1s-4.1-0.7-5.4-2.1c-1.3-1.4-2-3.3-2-5.7
			s0.7-4.3,2-5.8s3.1-2.2,5.4-2.2c2.3,0,4.2,0.7,5.5,2.2C49.8,32.5,50.4,34.5,50.4,37z M44.6,36.8c0-0.5,0-1-0.1-1.5
			s-0.2-0.8-0.3-1.1s-0.3-0.6-0.5-0.7c-0.2-0.2-0.4-0.3-0.6-0.3c-0.5,0-0.8,0.3-1.1,1c-0.3,0.6-0.4,1.4-0.4,2.6c0,1.1,0.1,2,0.4,2.6
			c0.3,0.6,0.7,1,1.1,1c0.5,0,0.8-0.3,1.1-1C44.4,38.7,44.6,37.8,44.6,36.8z"/>
		<path fill="#FFFFFF" d="M58.4,44.7h-5.9V28.9h5.9L58.1,32c0.9-2.3,2.4-3.5,4.4-3.5v6.6c-0.6-0.4-1.2-0.5-1.6-0.5
			c-0.8,0-1.4,0.3-1.8,0.9s-0.6,1.4-0.6,2.5v6.7H58.4z"/>
		<path fill="#FFFFFF" d="M71.4,44.7h-5.9V33.6h-1.7v-4.8h1.7v-4.7h5.9v4.7h1.9v4.8h-1.9V44.7z"/>
		<path fill="#FFFFFF" d="M81.5,44.7h-5.9V33.6h-1.7v-4.8h1.7V26c0-2,0.4-3.6,1.3-4.6c0.9-1.1,2.2-1.6,3.9-1.6
			c0.9,0,1.8,0.1,2.8,0.4v5.4c-0.6-0.4-1-0.6-1.2-0.6c-0.6,0-0.9,0.5-0.9,1.6v2.2h2.1v4.8h-2.1V44.7z"/>
		<path fill="#FFFFFF" d="M99.8,37c0,2.3-0.7,4.2-2,5.6c-1.4,1.4-3.2,2.1-5.5,2.1s-4.1-0.7-5.4-2.1c-1.3-1.4-2-3.3-2-5.7
			s0.7-4.3,2-5.8s3.1-2.2,5.4-2.2s4.2,0.7,5.5,2.2C99.1,32.5,99.8,34.5,99.8,37z M93.9,36.8c0-0.5,0-1-0.1-1.5
			c-0.1-0.4-0.2-0.8-0.3-1.1c-0.1-0.3-0.3-0.6-0.5-0.7c-0.2-0.2-0.4-0.3-0.6-0.3c-0.5,0-0.8,0.3-1.1,1c-0.3,0.6-0.4,1.4-0.4,2.6
			c0,1.1,0.1,2,0.4,2.6s0.7,1,1.1,1c0.5,0,0.8-0.3,1.1-1C93.7,38.7,93.9,37.8,93.9,36.8z"/>
		<path fill="#FFFFFF" d="M107.7,44.7h-5.9V20h5.9V44.7z"/>
		<path fill="#FFFFFF" d="M116.8,24c0,0.9-0.3,1.7-1,2.4c-0.7,0.7-1.5,1-2.4,1s-1.8-0.3-2.4-1c-0.7-0.7-1-1.5-1-2.4s0.3-1.8,1-2.4
			c0.7-0.7,1.5-1,2.4-1c1,0,1.8,0.3,2.4,1C116.5,22.2,116.8,23,116.8,24z M116.3,44.7h-5.9V28.9h5.9V44.7z"/>
		<path fill="#FFFFFF" d="M133.5,37c0,2.3-0.7,4.2-2,5.6c-1.4,1.4-3.2,2.1-5.5,2.1s-4.1-0.7-5.4-2.1c-1.3-1.4-2-3.3-2-5.7
			s0.7-4.3,2-5.8s3.1-2.2,5.4-2.2s4.2,0.7,5.5,2.2C132.8,32.5,133.5,34.5,133.5,37z M127.6,36.8c0-0.5,0-1-0.1-1.5
			c-0.1-0.4-0.2-0.8-0.3-1.1c-0.1-0.3-0.3-0.6-0.5-0.7c-0.2-0.2-0.4-0.3-0.6-0.3c-0.5,0-0.8,0.3-1.1,1c-0.3,0.6-0.4,1.4-0.4,2.6
			c0,1.1,0.1,2,0.4,2.6s0.7,1,1.1,1c0.5,0,0.8-0.3,1.1-1C127.5,38.7,127.6,37.8,127.6,36.8z"/>
	</g>
</g>
</svg>
