<?xml version="1.0" encoding="utf-8"?>
<!-- Generator: Adobe Illustrator 18.1.1, SVG Export Plug-In . SVG Version: 6.00 Build 0)  -->
<svg version="1.1" xmlns="http://www.w3.org/2000/svg" xmlns:xlink="http://www.w3.org/1999/xlink" x="0px" y="0px"
	 viewBox="0 0 1100 95" enable-background="new 0 0 1100 95" xml:space="preserve">
<g id="black_outline">
	<polyline fill="none" stroke="#231F20" stroke-miterlimit="10" points="2.5,92.5 2.5,70.5 1097.5,70.5 1097.5,92.5 	"/>
</g>
<g id="active_button">
	<g display="none">
		<g id="Inactive_Tab_4_" display="inline">
			<path fill="#E0150F" d="M472.5,92.5h-150v-90H460c6.9,0,12.5,5.6,12.5,12.5V92.5z"/>
		</g>
		<g id="Active_Tab_4_" display="inline">
			<path fill="none" stroke="#231F20" stroke-miterlimit="10" d="M322.5,92.5v-90H460c6.9,0,12.5,5.6,12.5,12.5v77.5"/>
			<path fill="#E0150F" d="M472.5,92.5h-150v-90H460c6.9,0,12.5,5.6,12.5,12.5V92.5z"/>
		</g>
		<g id="Live_Text_4_" display="inline">
			<rect x="332" y="20" fill="none" width="128" height="40"/>
			<text transform="matrix(1 0 0 1 356.6984 44.7197)" fill="#FFFFFF" font-family="'Futura-CondensedExtraBold'" font-size="30">About</text>
		</g>
		<g id="Outlined_Text_4_" display="inline">
			<g>
				<path fill="#FFFFFF" d="M374.6,44.7h-6.3l-0.5-2.9h-4.1l-0.5,2.9h-6.3l5.4-22.6h7.5L374.6,44.7z M367.1,37.1l-0.4-2.6
					c0,0,0-0.1-0.1-0.4c0-0.2-0.1-1.1-0.3-2.5c0-0.2,0-0.4-0.1-0.7c-0.1-0.3-0.1-0.7-0.1-1.1l-0.2-2.1c0,0.2,0,0.4-0.1,0.7
					c-0.1,0.3-0.1,0.5-0.1,0.8c-0.1,0.6-0.1,1-0.1,1.3s0,0.4-0.1,0.4l-0.4,2.7l-0.6,3.5C364.5,37.1,367.1,37.1,367.1,37.1z"/>
				<path fill="#FFFFFF" d="M382.1,44.7h-6V20h5.9v9c0,0.7,0,1.6-0.1,2.5c0.5-1,1.1-1.6,1.6-2c0.6-0.4,1.3-0.6,2.1-0.6
					c1.6,0,2.8,0.7,3.7,2.1s1.3,3.4,1.3,5.9c0,2.4-0.5,4.4-1.4,5.7c-0.9,1.4-2.1,2.1-3.7,2.1c-0.8,0-1.4-0.1-2-0.2
					c-0.3-0.2-0.5-0.4-0.8-0.7c-0.3-0.3-0.6-0.7-0.8-1.2c0,0.2,0,0.3,0,0.5s0,0.2,0,0.3L382.1,44.7z M384.8,36.9
					c0-2.2-0.5-3.3-1.5-3.3c-0.9,0-1.3,1-1.3,3.1c0,2.2,0.5,3.2,1.4,3.2C384.3,40,384.8,38.9,384.8,36.9z"/>
				<path fill="#FFFFFF" d="M407.4,37c0,2.3-0.7,4.2-2,5.6c-1.4,1.4-3.2,2.1-5.5,2.1c-2.3,0-4.1-0.7-5.4-2.1c-1.3-1.4-2-3.3-2-5.7
					s0.7-4.3,2-5.8c1.3-1.5,3.1-2.2,5.4-2.2c2.3,0,4.2,0.7,5.5,2.2C406.8,32.5,407.4,34.5,407.4,37z M401.5,36.8c0-0.5,0-1-0.1-1.5
					c-0.1-0.4-0.2-0.8-0.3-1.1s-0.3-0.6-0.5-0.7c-0.2-0.2-0.4-0.3-0.6-0.3c-0.5,0-0.8,0.3-1.1,1c-0.3,0.6-0.4,1.4-0.4,2.6
					c0,1.1,0.1,2,0.4,2.6c0.3,0.6,0.7,1,1.1,1c0.5,0,0.8-0.3,1.1-1C401.4,38.7,401.5,37.8,401.5,36.8z"/>
				<path fill="#FFFFFF" d="M409.5,28.9h5.9v8.9c0,0.8,0.1,1.5,0.2,1.9c0.2,0.3,0.5,0.5,1,0.5s0.8-0.2,1-0.5
					c0.2-0.3,0.3-0.9,0.3-1.9v-8.9h5.9v9.5c0,0.6-0.1,1.2-0.2,1.7s-0.3,1-0.5,1.4c-0.2,0.4-0.5,0.8-0.9,1.1
					c-0.3,0.3-0.8,0.7-1.2,0.9c-1.3,0.7-2.8,1.1-4.4,1.1c-1.7,0-3.1-0.4-4.4-1.1c-0.5-0.3-0.9-0.6-1.3-0.9c-0.3-0.3-0.6-0.7-0.9-1.1
					c-0.2-0.4-0.4-0.9-0.5-1.4s-0.2-1.1-0.2-1.7v-9.5C409.3,28.9,409.5,28.9,409.5,28.9z"/>
				<path fill="#FFFFFF" d="M433.1,44.7h-5.9V33.6h-1.7v-4.8h1.7v-4.7h5.9v4.7h1.9v4.8h-1.9V44.7z"/>
			</g>
		</g>
	</g>
	<g>
		<g id="Inactive_Tab_5_">
			<path fill="#E0150F" d="M632.5,92.5h-150v-90H620c6.9,0,12.5,5.6,12.5,12.5V92.5z"/>
		</g>
		<g id="Active_Tab_5_">
			<path fill="none" stroke="#231F20" stroke-miterlimit="10" d="M482.5,92.5v-90H620c6.9,0,12.5,5.6,12.5,12.5v77.5"/>
			<path fill="#E0150F" d="M632.5,92.5h-150v-90H620c6.9,0,12.5,5.6,12.5,12.5V92.5z"/>
		</g>
		<g id="Live_Text_5_">
			<rect x="492" y="20" fill="none" width="128" height="40"/>
			<text transform="matrix(1 0 0 1 508.0924 44.7197)" fill="#FFFFFF" font-family="'Futura-CondensedExtraBold'" font-size="30">Contact</text>
		</g>
		<g id="Outlined_Text_5_">
			<g>
				<path fill="#FFFFFF" d="M522.3,37.8l-0.4,6.2c-1.4,0.5-2.6,0.8-3.6,0.8c-2.5,0-4.7-0.9-6.4-2.7c-1.9-2-2.9-4.9-2.9-8.5
					c0-3.4,0.9-6.2,2.7-8.3c1.8-2.1,4.2-3.1,7.3-3.1c1,0,2,0.2,3,0.5v6.2c-0.9-0.9-1.8-1.4-2.8-1.4c-1.2,0-2.2,0.5-2.9,1.6
					s-1.1,2.5-1.1,4.4c0,0.9,0.1,1.7,0.3,2.4s0.4,1.3,0.8,1.8c0.3,0.5,0.7,0.9,1.2,1.1s1,0.4,1.6,0.4
					C520.1,39.3,521.2,38.8,522.3,37.8z"/>
				<path fill="#FFFFFF" d="M538.9,37c0,2.3-0.7,4.2-2,5.6c-1.4,1.4-3.2,2.1-5.5,2.1c-2.3,0-4.1-0.7-5.4-2.1s-2-3.3-2-5.7
					s0.7-4.3,2-5.8c1.3-1.5,3.1-2.2,5.4-2.2c2.3,0,4.2,0.7,5.5,2.2C538.2,32.5,538.9,34.5,538.9,37z M533,36.8c0-0.5,0-1-0.1-1.5
					c-0.1-0.5-0.2-0.8-0.3-1.1c-0.1-0.3-0.3-0.6-0.5-0.7c-0.2-0.2-0.4-0.3-0.6-0.3c-0.5,0-0.8,0.3-1.1,1c-0.3,0.6-0.4,1.4-0.4,2.6
					c0,1.1,0.1,2,0.4,2.6c0.3,0.6,0.7,1,1.1,1c0.5,0,0.8-0.3,1.1-1C532.8,38.7,533,37.8,533,36.8z"/>
				<path fill="#FFFFFF" d="M555.5,44.7h-5.9v-8.4c0-0.7-0.1-1.2-0.3-1.5s-0.5-0.4-0.9-0.4c-1,0-1.6,0.8-1.6,2.3v8H541V28.9h5.9
					c0,0.4,0,0.8,0,1.1s0,0.6,0,0.9l-0.1,1c1-2,2.5-3,4.5-3c1.4,0,2.4,0.5,3.2,1.4s1.2,2.2,1.2,3.9v10.5H555.5z"/>
				<path fill="#FFFFFF" d="M564.3,44.7h-5.9V33.6h-1.7v-4.8h1.7v-4.7h5.9v4.7h1.9v4.8h-1.9V44.7z"/>
				<path fill="#FFFFFF" d="M582.2,44.7h-5.9c0-0.5,0.1-1,0.1-1.5s0.1-0.9,0.1-1.2c-1,1.8-2.4,2.7-4.1,2.7c-1.5,0-2.7-0.7-3.5-2.1
					c-0.9-1.4-1.3-3.4-1.3-5.9c0-2.4,0.4-4.3,1.3-5.7c0.9-1.4,2.1-2.1,3.6-2.1c1.6,0,2.8,0.8,3.8,2.5c0-0.2,0-0.4,0-0.5s0-0.3,0-0.4
					l-0.1-0.9v-0.7h5.9L582.2,44.7L582.2,44.7z M576.3,36.6c0-0.5,0-1-0.1-1.4c0-0.4-0.1-0.7-0.2-0.9s-0.2-0.4-0.4-0.5
					c-0.2-0.1-0.4-0.2-0.6-0.2c-1,0-1.5,1.2-1.5,3.7c0,1.8,0.4,2.6,1.3,2.6C575.8,40,576.3,38.9,576.3,36.6z"/>
				<path fill="#FFFFFF" d="M593,39.6v5c-0.4,0-0.7,0.1-0.9,0.1c-0.3,0-0.5,0-0.7,0c-1.7,0-3.2-0.5-4.3-1.5
					c-0.8-0.7-1.4-1.6-1.9-2.8s-0.7-2.4-0.7-3.7c0-2.2,0.7-4.1,2.1-5.6c1.4-1.5,3.1-2.2,5.2-2.2c0.1,0,0.3,0,0.5,0s0.4,0,0.7,0v5.4
					c-1.7,0.1-2.6,1-2.6,2.6c0,0.7,0.2,1.4,0.6,1.9c0.4,0.5,1,0.8,1.6,0.8c0.1,0,0.1,0,0.2,0C592.8,39.7,592.9,39.6,593,39.6z"/>
				<path fill="#FFFFFF" d="M601.9,44.7H596V33.6h-1.7v-4.8h1.7v-4.7h5.9v4.7h1.9v4.8h-1.9V44.7z"/>
			</g>
		</g>
	</g>
	<g display="none">
		<g id="Inactive_Tab_1_" display="inline">
			<path fill="#E0150F" d="M152.5,92.5H2.5v-90H140c6.9,0,12.5,5.6,12.5,12.5V92.5z"/>
		</g>
		<g id="Active_Tab_1_" display="inline">
			<path fill="none" stroke="#231F20" stroke-miterlimit="10" d="M2.5,92.5v-90H140c6.9,0,12.5,5.6,12.5,12.5v77.5"/>
			<path fill="#E0150F" d="M152.5,92.5H2.5v-90H140c6.9,0,12.5,5.6,12.5,12.5V92.5z"/>
		</g>
		<g id="Live_Text_1_" display="inline">
			<rect x="12" y="20" fill="none" width="128" height="40"/>
			<text transform="matrix(1 0 0 1 37.9729 44.7197)" fill="#FFFFFF" font-family="'Futura-CondensedExtraBold'" font-size="30">Home</text>
		</g>
		<g id="Outlined_Text_1_" display="inline">
			<g>
				<path fill="#FFFFFF" d="M54.7,44.7h-6.1v-9.1h-2.9v9.1h-6.1V22.1h6.1v8.1h2.9v-8.1h6.1V44.7z"/>
				<path fill="#FFFFFF" d="M72.1,37c0,2.3-0.7,4.2-2,5.6c-1.4,1.4-3.2,2.1-5.5,2.1c-2.3,0-4.1-0.7-5.4-2.1c-1.3-1.4-2-3.3-2-5.7
					s0.7-4.3,2-5.8s3.1-2.2,5.4-2.2s4.2,0.7,5.5,2.2C71.4,32.5,72.1,34.5,72.1,37z M66.2,36.8c0-0.5,0-1-0.1-1.5s-0.2-0.8-0.3-1.1
					c-0.1-0.3-0.3-0.6-0.5-0.7c-0.2-0.2-0.4-0.3-0.6-0.3c-0.5,0-0.8,0.3-1.1,1c-0.3,0.6-0.4,1.4-0.4,2.6c0,1.1,0.1,2,0.4,2.6
					c0.3,0.6,0.7,1,1.1,1c0.5,0,0.8-0.3,1.1-1C66.1,38.7,66.2,37.8,66.2,36.8z"/>
				<path fill="#FFFFFF" d="M96.4,44.7h-5.9v-9c0-1-0.3-1.5-0.9-1.5c-0.9,0-1.3,0.8-1.3,2.5v8h-5.9V36c0-1.1-0.3-1.6-1-1.6
					c-0.5,0-0.8,0.2-1,0.5s-0.3,1-0.3,1.9v7.9h-5.9V28.9h5.9v0.8c0,0.6,0,1.2-0.1,1.8c1-1.8,2.4-2.6,4.1-2.6c1.9,0,3.3,1.1,4.2,3.3
					c0.8-2.2,2.1-3.3,3.9-3.3c1.4,0,2.5,0.5,3.2,1.5c0.6,0.8,1,2.1,1,3.7L96.4,44.7L96.4,44.7z"/>
				<path fill="#FFFFFF" d="M107.2,39.4l5.7,0.1c-0.4,1.7-1.2,3-2.4,3.9c-1.2,0.9-2.7,1.3-4.7,1.3c-2.3,0-4-0.7-5.3-2
					c-1.3-1.4-1.9-3.2-1.9-5.6c0-2.4,0.7-4.4,2.1-5.9c1.4-1.5,3.2-2.3,5.3-2.3c2.2,0,3.9,0.7,5.2,2.2c1.3,1.5,1.9,3.5,1.9,5.9v1
					h-8.6c0.1,1.5,0.5,2.3,1.4,2.3C106.5,40.3,107,40,107.2,39.4z M107.3,34.7c0-0.2,0-0.4-0.1-0.6s-0.2-0.3-0.3-0.5
					c-0.1-0.1-0.3-0.2-0.4-0.3s-0.3-0.1-0.5-0.1c-0.4,0-0.7,0.1-1,0.4c-0.3,0.3-0.4,0.6-0.4,1L107.3,34.7L107.3,34.7z"/>
			</g>
		</g>
	</g>
	<g display="none">
		<g id="Inactive_Tab_2_" display="inline">
			<path fill="#E0150F" d="M312.5,92.5h-150v-90H300c6.9,0,12.5,5.6,12.5,12.5V92.5z"/>
		</g>
		<g id="Active_Tab_2_" display="inline">
			<path fill="none" stroke="#231F20" stroke-miterlimit="10" d="M162.5,92.5v-90H300c6.9,0,12.5,5.6,12.5,12.5v77.5"/>
			<path fill="#E0150F" d="M312.5,92.5h-150v-90H300c6.9,0,12.5,5.6,12.5,12.5V92.5z"/>
		</g>
		<g id="Live_Text_2_" display="inline">
			<rect x="172" y="20" fill="none" width="128" height="40"/>
			<text transform="matrix(1 0 0 1 177.9777 44.7197)" fill="#FFFFFF" font-family="'Futura-CondensedExtraBold'" font-size="30">Portfolio</text>
		</g>
		<g id="Outlined_Text_2_" display="inline">
			<g>
				<path fill="#FFFFFF" d="M185.5,44.7h-6.1V22.1h5.9c2.9,0,5.1,0.6,6.6,1.8c1.7,1.4,2.5,3.4,2.5,5.9c0,2.7-0.9,4.8-2.7,6.1
					c-1.2,0.9-3,1.4-5.3,1.4h-1L185.5,44.7L185.5,44.7z M185.5,32.5h0.3c0.7,0,1.3-0.2,1.8-0.7s0.7-1.1,0.7-1.9s-0.2-1.4-0.6-1.9
					s-1-0.7-1.6-0.7h-0.4v5.2H185.5z"/>
				<path fill="#FFFFFF" d="M210.4,37c0,2.3-0.7,4.2-2,5.6c-1.4,1.4-3.2,2.1-5.5,2.1c-2.3,0-4.1-0.7-5.4-2.1c-1.3-1.4-2-3.3-2-5.7
					s0.7-4.3,2-5.8s3.1-2.2,5.4-2.2s4.2,0.7,5.5,2.2C209.8,32.5,210.4,34.5,210.4,37z M204.6,36.8c0-0.5,0-1-0.1-1.5
					c-0.1-0.5-0.2-0.8-0.3-1.1c-0.1-0.3-0.3-0.6-0.5-0.7c-0.2-0.2-0.4-0.3-0.6-0.3c-0.5,0-0.8,0.3-1.1,1c-0.3,0.6-0.4,1.4-0.4,2.6
					c0,1.1,0.1,2,0.4,2.6s0.7,1,1.1,1c0.5,0,0.8-0.3,1.1-1C204.4,38.7,204.6,37.8,204.6,36.8z"/>
				<path fill="#FFFFFF" d="M218.4,44.7h-5.9V28.9h5.9l-0.3,3.1c0.9-2.3,2.4-3.5,4.4-3.5v6.6c-0.6-0.4-1.2-0.5-1.6-0.5
					c-0.8,0-1.4,0.3-1.8,0.9c-0.4,0.6-0.6,1.4-0.6,2.5v6.7H218.4z"/>
				<path fill="#FFFFFF" d="M231.4,44.7h-5.9V33.6h-1.7v-4.8h1.7v-4.7h5.9v4.7h1.9v4.8h-1.9V44.7z"/>
				<path fill="#FFFFFF" d="M241.5,44.7h-5.9V33.6h-1.7v-4.8h1.7V26c0-2,0.4-3.6,1.3-4.6c0.9-1.1,2.2-1.6,3.9-1.6
					c0.9,0,1.8,0.1,2.8,0.4v5.4c-0.6-0.4-1-0.6-1.2-0.6c-0.6,0-0.9,0.5-0.9,1.6v2.2h2.1v4.8h-2.1C241.5,33.6,241.5,44.7,241.5,44.7z
					"/>
				<path fill="#FFFFFF" d="M259.8,37c0,2.3-0.7,4.2-2,5.6c-1.4,1.4-3.2,2.1-5.5,2.1s-4.1-0.7-5.4-2.1c-1.3-1.4-2-3.3-2-5.7
					s0.7-4.3,2-5.8s3.1-2.2,5.4-2.2s4.2,0.7,5.5,2.2C259.1,32.5,259.8,34.5,259.8,37z M253.9,36.8c0-0.5,0-1-0.1-1.5
					c-0.1-0.4-0.2-0.8-0.3-1.1s-0.3-0.6-0.5-0.7c-0.2-0.2-0.4-0.3-0.6-0.3c-0.5,0-0.8,0.3-1.1,1c-0.3,0.6-0.4,1.4-0.4,2.6
					c0,1.1,0.1,2,0.4,2.6s0.7,1,1.1,1c0.5,0,0.8-0.3,1.1-1C253.7,38.7,253.9,37.8,253.9,36.8z"/>
				<path fill="#FFFFFF" d="M267.7,44.7h-5.9V20h5.9V44.7z"/>
				<path fill="#FFFFFF" d="M276.8,24c0,0.9-0.3,1.7-1,2.4c-0.7,0.7-1.5,1-2.4,1s-1.8-0.3-2.4-1c-0.7-0.7-1-1.5-1-2.4s0.3-1.8,1-2.4
					c0.7-0.7,1.5-1,2.4-1c1,0,1.8,0.3,2.4,1C276.5,22.2,276.8,23,276.8,24z M276.3,44.7h-5.9V28.9h5.9V44.7z"/>
				<path fill="#FFFFFF" d="M293.5,37c0,2.3-0.7,4.2-2,5.6c-1.4,1.4-3.2,2.1-5.5,2.1c-2.3,0-4.1-0.7-5.4-2.1c-1.3-1.4-2-3.3-2-5.7
					s0.7-4.3,2-5.8c1.3-1.5,3.1-2.2,5.4-2.2c2.3,0,4.2,0.7,5.5,2.2C292.8,32.5,293.5,34.5,293.5,37z M287.6,36.8c0-0.5,0-1-0.1-1.5
					c-0.1-0.4-0.2-0.8-0.3-1.1c-0.1-0.3-0.3-0.6-0.5-0.7c-0.2-0.2-0.4-0.3-0.6-0.3c-0.5,0-0.8,0.3-1.1,1c-0.3,0.6-0.4,1.4-0.4,2.6
					c0,1.1,0.1,2,0.4,2.6c0.3,0.6,0.7,1,1.1,1c0.5,0,0.8-0.3,1.1-1C287.5,38.7,287.6,37.8,287.6,36.8z"/>
			</g>
		</g>
	</g>
</g>
<g id="red_stripe">
	<rect x="2.5" y="70.5" fill="#E0150F" width="1095" height="22"/>
</g>
</svg>
