<?xml version="1.0" encoding="utf-8"?>
<!-- Generator: Adobe Illustrator 18.1.1, SVG Export Plug-In . SVG Version: 6.00 Build 0)  -->
<svg version="1.1" id="Layer_1" xmlns="http://www.w3.org/2000/svg" xmlns:xlink="http://www.w3.org/1999/xlink" x="0px" y="0px"
	 viewBox="0 0 155 95" enable-background="new 0 0 155 95" xml:space="preserve">
<g id="Inactive_Tab">
	<path fill="#E0150F" d="M152.5,92.5H2.5v-90H140c6.9,0,12.5,5.6,12.5,12.5V92.5z"/>
</g>
<linearGradient id="SVGID_1_" gradientUnits="userSpaceOnUse" x1="77.5" y1="2.5" x2="77.5" y2="92.5">
	<stop  offset="0.4982" style="stop-color:#E0150F"/>
	<stop  offset="1" style="stop-color:#000000"/>
</linearGradient>
<path fill="url(#SVGID_1_)" d="M152.5,92.5H2.5v-90H140c6.9,0,12.5,5.6,12.5,12.5V92.5z"/>
<g id="Active_Tab" display="none">
	<path display="inline" fill="none" stroke="#231F20" stroke-miterlimit="10" d="M2.5,92.5v-90H140c6.9,0,12.5,5.6,12.5,12.5v77.5"
		/>
	<path display="inline" fill="#E0150F" d="M152.5,92.5H2.5v-90H140c6.9,0,12.5,5.6,12.5,12.5V92.5z"/>
</g>
<g id="Live_Text" display="none">
	<rect x="12" y="20" display="inline" fill="none" width="128" height="40"/>
	
		<text transform="matrix(1 0 0 1 28.0923 44.7197)" display="inline" fill="#FFFFFF" font-family="'Futura-CondensedExtraBold'" font-size="30">Contact</text>
</g>
<g id="Outlined_Text">
	<g>
		<path fill="#FFFFFF" d="M42.3,37.8L41.9,44c-1.4,0.5-2.6,0.8-3.6,0.8c-2.5,0-4.7-0.9-6.4-2.7c-1.9-2-2.9-4.9-2.9-8.5
			c0-3.4,0.9-6.2,2.7-8.3c1.8-2.1,4.2-3.1,7.3-3.1c1,0,2,0.2,3,0.5v6.2c-0.9-0.9-1.8-1.4-2.8-1.4c-1.2,0-2.2,0.5-2.9,1.6
			s-1.1,2.5-1.1,4.4c0,0.9,0.1,1.7,0.3,2.4s0.4,1.3,0.8,1.8c0.3,0.5,0.7,0.9,1.2,1.1s1,0.4,1.6,0.4C40.1,39.3,41.2,38.8,42.3,37.8z"
			/>
		<path fill="#FFFFFF" d="M58.9,37c0,2.3-0.7,4.2-2,5.6c-1.4,1.4-3.2,2.1-5.5,2.1S47.3,44,46,42.6c-1.3-1.4-2-3.3-2-5.7
			s0.7-4.3,2-5.8s3.1-2.2,5.4-2.2c2.3,0,4.2,0.7,5.5,2.2C58.2,32.5,58.9,34.5,58.9,37z M53,36.8c0-0.5,0-1-0.1-1.5s-0.2-0.8-0.3-1.1
			s-0.3-0.6-0.5-0.7c-0.2-0.2-0.4-0.3-0.6-0.3c-0.5,0-0.8,0.3-1.1,1c-0.3,0.6-0.4,1.4-0.4,2.6c0,1.1,0.1,2,0.4,2.6
			c0.3,0.6,0.7,1,1.1,1c0.5,0,0.8-0.3,1.1-1C52.8,38.7,53,37.8,53,36.8z"/>
		<path fill="#FFFFFF" d="M75.5,44.7h-5.9v-8.4c0-0.7-0.1-1.2-0.3-1.5s-0.5-0.4-0.9-0.4c-1,0-1.6,0.8-1.6,2.3v8H61V28.9h5.9
			c0,0.4,0,0.8,0,1.1s0,0.6,0,0.9l-0.1,1c1-2,2.5-3,4.5-3c1.4,0,2.4,0.5,3.2,1.4c0.8,0.9,1.2,2.2,1.2,3.9v10.5H75.5z"/>
		<path fill="#FFFFFF" d="M84.3,44.7h-5.9V33.6h-1.7v-4.8h1.7v-4.7h5.9v4.7h1.9v4.8h-1.9V44.7z"/>
		<path fill="#FFFFFF" d="M102.2,44.7h-5.9c0-0.5,0.1-1,0.1-1.5s0.1-0.9,0.1-1.2c-1,1.8-2.4,2.7-4.1,2.7c-1.5,0-2.7-0.7-3.5-2.1
			c-0.9-1.4-1.3-3.4-1.3-5.9c0-2.4,0.4-4.3,1.3-5.7c0.9-1.4,2.1-2.1,3.6-2.1c1.6,0,2.8,0.8,3.8,2.5c0-0.2,0-0.4,0-0.5s0-0.3,0-0.4
			l-0.1-0.9v-0.7h5.9L102.2,44.7L102.2,44.7z M96.3,36.6c0-0.5,0-1-0.1-1.4c0-0.4-0.1-0.7-0.2-0.9s-0.2-0.4-0.4-0.5
			c-0.2-0.1-0.4-0.2-0.6-0.2c-1,0-1.5,1.2-1.5,3.7c0,1.8,0.4,2.6,1.3,2.6C95.8,40,96.3,38.9,96.3,36.6z"/>
		<path fill="#FFFFFF" d="M113,39.6v5c-0.4,0-0.7,0.1-0.9,0.1c-0.3,0-0.5,0-0.7,0c-1.7,0-3.2-0.5-4.3-1.5c-0.8-0.7-1.4-1.6-1.9-2.8
			s-0.7-2.4-0.7-3.7c0-2.2,0.7-4.1,2.1-5.6c1.4-1.5,3.1-2.2,5.2-2.2c0.1,0,0.3,0,0.5,0s0.4,0,0.7,0v5.4c-1.7,0.1-2.6,1-2.6,2.6
			c0,0.7,0.2,1.4,0.6,1.9s1,0.8,1.6,0.8c0.1,0,0.1,0,0.2,0C112.8,39.7,112.9,39.6,113,39.6z"/>
		<path fill="#FFFFFF" d="M121.9,44.7H116V33.6h-1.7v-4.8h1.7v-4.7h5.9v4.7h1.9v4.8h-1.9V44.7z"/>
	</g>
</g>
</svg>
