<?xml version="1.0" encoding="utf-8"?>
<!-- Generator: Adobe Illustrator 18.1.1, SVG Export Plug-In . SVG Version: 6.00 Build 0)  -->
<svg version="1.1" id="Layer_1" xmlns="http://www.w3.org/2000/svg" xmlns:xlink="http://www.w3.org/1999/xlink" x="0px" y="0px"
	 viewBox="0 0 155 95" enable-background="new 0 0 155 95" xml:space="preserve">
<g id="Inactive_Tab">
	<path fill="#E0150F" d="M152.5,92.5H2.5v-90H140c6.9,0,12.5,5.6,12.5,12.5V92.5z"/>
</g>
<linearGradient id="SVGID_1_" gradientUnits="userSpaceOnUse" x1="77.5" y1="2.5" x2="77.5" y2="92.5">
	<stop  offset="0.4982" style="stop-color:#E0150F"/>
	<stop  offset="1" style="stop-color:#000000"/>
</linearGradient>
<path fill="url(#SVGID_1_)" d="M152.5,92.5H2.5v-90H140c6.9,0,12.5,5.6,12.5,12.5V92.5z"/>
<g id="Active_Tab" display="none">
	<path display="inline" fill="none" stroke="#231F20" stroke-miterlimit="10" d="M2.5,92.5v-90H140c6.9,0,12.5,5.6,12.5,12.5v77.5"
		/>
	<path display="inline" fill="#E0150F" d="M152.5,92.5H2.5v-90H140c6.9,0,12.5,5.6,12.5,12.5V92.5z"/>
</g>
<g id="Live_Text" display="none">
	<rect x="12" y="20" display="inline" fill="none" width="128" height="40"/>
	
		<text transform="matrix(1 0 0 1 37.9727 44.7197)" display="inline" fill="#FFFFFF" font-family="'Futura-CondensedExtraBold'" font-size="30">Home</text>
</g>
<g id="Outlined_Text">
	<g>
		<path fill="#FFFFFF" d="M54.7,44.7h-6.1v-9.1h-2.9v9.1h-6.1V22.1h6.1v8.1h2.9v-8.1h6.1V44.7z"/>
		<path fill="#FFFFFF" d="M72.1,37c0,2.3-0.7,4.2-2,5.6c-1.4,1.4-3.2,2.1-5.5,2.1c-2.3,0-4.1-0.7-5.4-2.1c-1.3-1.4-2-3.3-2-5.7
			s0.7-4.3,2-5.8s3.1-2.2,5.4-2.2s4.2,0.7,5.5,2.2C71.4,32.5,72.1,34.5,72.1,37z M66.2,36.8c0-0.5,0-1-0.1-1.5s-0.2-0.8-0.3-1.1
			c-0.1-0.3-0.3-0.6-0.5-0.7c-0.2-0.2-0.4-0.3-0.6-0.3c-0.5,0-0.8,0.3-1.1,1c-0.3,0.6-0.4,1.4-0.4,2.6c0,1.1,0.1,2,0.4,2.6
			c0.3,0.6,0.7,1,1.1,1c0.5,0,0.8-0.3,1.1-1C66.1,38.7,66.2,37.8,66.2,36.8z"/>
		<path fill="#FFFFFF" d="M96.4,44.7h-5.9v-9c0-1-0.3-1.5-0.9-1.5c-0.9,0-1.3,0.8-1.3,2.5v8h-5.9V36c0-1.1-0.3-1.6-1-1.6
			c-0.5,0-0.8,0.2-1,0.5s-0.3,1-0.3,1.9v7.9h-5.9V28.9h5.9v0.8c0,0.6,0,1.2-0.1,1.8c1-1.8,2.4-2.6,4.1-2.6c1.9,0,3.3,1.1,4.2,3.3
			c0.8-2.2,2.1-3.3,3.9-3.3c1.4,0,2.5,0.5,3.2,1.5c0.6,0.8,1,2.1,1,3.7L96.4,44.7L96.4,44.7z"/>
		<path fill="#FFFFFF" d="M107.2,39.4l5.7,0.1c-0.4,1.7-1.2,3-2.4,3.9c-1.2,0.9-2.7,1.3-4.7,1.3c-2.3,0-4-0.7-5.3-2
			c-1.3-1.4-1.9-3.2-1.9-5.6c0-2.4,0.7-4.4,2.1-5.9c1.4-1.5,3.2-2.3,5.3-2.3c2.2,0,3.9,0.7,5.2,2.2c1.3,1.5,1.9,3.5,1.9,5.9v1h-8.6
			c0.1,1.5,0.5,2.3,1.4,2.3C106.5,40.3,107,40,107.2,39.4z M107.3,34.7c0-0.2,0-0.4-0.1-0.6s-0.2-0.3-0.3-0.5
			c-0.1-0.1-0.3-0.2-0.4-0.3s-0.3-0.1-0.5-0.1c-0.4,0-0.7,0.1-1,0.4c-0.3,0.3-0.4,0.6-0.4,1L107.3,34.7L107.3,34.7z"/>
	</g>
</g>
</svg>
