<?xml version="1.0" encoding="utf-8"?>
<!-- Generator: Adobe Illustrator 18.1.1, SVG Export Plug-In . SVG Version: 6.00 Build 0)  -->
<svg version="1.1" id="Layer_1" xmlns="http://www.w3.org/2000/svg" xmlns:xlink="http://www.w3.org/1999/xlink" x="0px" y="0px"
	 viewBox="0 0 155 95" enable-background="new 0 0 155 95" xml:space="preserve">
<g id="Inactive_Tab" display="none">
	<path display="inline" fill="#E0150F" d="M152.5,92.5H2.5v-90H140c6.9,0,12.5,5.6,12.5,12.5V92.5z"/>
</g>
<g id="Active_Tab">
	<path fill="none" stroke="#231F20" stroke-miterlimit="10" d="M2.5,92.5v-90H140c6.9,0,12.5,5.6,12.5,12.5v77.5"/>
	<path fill="#E0150F" d="M152.5,92.5H2.5v-90H140c6.9,0,12.5,5.6,12.5,12.5V92.5z"/>
</g>
<g id="Live_Text" display="none">
	<rect x="12" y="20" display="inline" fill="none" width="128" height="40"/>
	
		<text transform="matrix(1 0 0 1 36.6982 44.7197)" display="inline" fill="#FFFFFF" font-family="'Futura-CondensedExtraBold'" font-size="30">About</text>
</g>
<g id="Outlined_Text">
	<g>
		<path fill="#FFFFFF" d="M54.6,44.7h-6.3l-0.5-2.9h-4.1l-0.5,2.9h-6.3l5.4-22.6h7.5L54.6,44.7z M47.1,37.1l-0.4-2.6
			c0,0,0-0.1-0.1-0.4c0-0.2-0.1-1.1-0.3-2.5c0-0.2,0-0.4-0.1-0.7s-0.1-0.7-0.1-1.1l-0.2-2.1c0,0.2,0,0.4-0.1,0.7s-0.1,0.5-0.1,0.8
			c-0.1,0.6-0.1,1-0.1,1.3s0,0.4-0.1,0.4l-0.4,2.7l-0.6,3.5C44.5,37.1,47.1,37.1,47.1,37.1z"/>
		<path fill="#FFFFFF" d="M62.1,44.7h-6V20H62v9c0,0.7,0,1.6-0.1,2.5c0.5-1,1.1-1.6,1.6-2c0.6-0.4,1.3-0.6,2.1-0.6
			c1.6,0,2.8,0.7,3.7,2.1c0.9,1.4,1.3,3.4,1.3,5.9c0,2.4-0.5,4.4-1.4,5.7c-0.9,1.4-2.1,2.1-3.7,2.1c-0.8,0-1.4-0.1-2-0.2
			c-0.3-0.2-0.5-0.4-0.8-0.7s-0.6-0.7-0.8-1.2c0,0.2,0,0.3,0,0.5s0,0.2,0,0.3L62.1,44.7z M64.8,36.9c0-2.2-0.5-3.3-1.5-3.3
			c-0.9,0-1.3,1-1.3,3.1c0,2.2,0.5,3.2,1.4,3.2C64.3,40,64.8,38.9,64.8,36.9z"/>
		<path fill="#FFFFFF" d="M87.4,37c0,2.3-0.7,4.2-2,5.6c-1.4,1.4-3.2,2.1-5.5,2.1s-4.1-0.7-5.4-2.1c-1.3-1.4-2-3.3-2-5.7
			s0.7-4.3,2-5.8s3.1-2.2,5.4-2.2s4.2,0.7,5.5,2.2C86.8,32.5,87.4,34.5,87.4,37z M81.5,36.8c0-0.5,0-1-0.1-1.5
			c-0.1-0.4-0.2-0.8-0.3-1.1c-0.1-0.3-0.3-0.6-0.5-0.7c-0.2-0.2-0.4-0.3-0.6-0.3c-0.5,0-0.8,0.3-1.1,1c-0.3,0.6-0.4,1.4-0.4,2.6
			c0,1.1,0.1,2,0.4,2.6s0.7,1,1.1,1c0.5,0,0.8-0.3,1.1-1C81.4,38.7,81.5,37.8,81.5,36.8z"/>
		<path fill="#FFFFFF" d="M89.5,28.9h5.9v8.9c0,0.8,0.1,1.5,0.2,1.9c0.2,0.3,0.5,0.5,1,0.5s0.8-0.2,1-0.5s0.3-0.9,0.3-1.9v-8.9h5.9
			v9.5c0,0.6-0.1,1.2-0.2,1.7s-0.3,1-0.5,1.4s-0.5,0.8-0.9,1.1c-0.3,0.3-0.8,0.7-1.2,0.9c-1.3,0.7-2.8,1.1-4.4,1.1
			c-1.7,0-3.1-0.4-4.4-1.1c-0.5-0.3-0.9-0.6-1.3-0.9c-0.3-0.3-0.6-0.7-0.9-1.1c-0.2-0.4-0.4-0.9-0.5-1.4s-0.2-1.1-0.2-1.7v-9.5
			C89.3,28.9,89.5,28.9,89.5,28.9z"/>
		<path fill="#FFFFFF" d="M113.1,44.7h-5.9V33.6h-1.7v-4.8h1.7v-4.7h5.9v4.7h1.9v4.8h-1.9V44.7z"/>
	</g>
</g>
</svg>
